<svg width="1024" height="1024" viewBox="0 0 1024 1024" fill="none" xmlns="http://www.w3.org/2000/svg">
<path d="M547 96C547.927 96.4257 548.854 96.8514 549.809 97.29C576.659 109.679 603.322 123.472 627.996 139.82C629.9 141.169 629.9 141.169 632 141C633.676 142.658 635.34 144.326 637 146C639.739 148.213 642.596 150.272 645.447 152.338C648.48 154.599 650.704 156.379 652 160C652.66 160 653.32 160 654 160C657.344 164.08 660.165 168.557 663 173C663.377 173.589 663.753 174.179 664.141 174.786C695.309 224.759 713.354 287.777 731.499 343.408C734.239 351.803 737.025 360.183 739.812 368.562C740.102 369.432 740.391 370.302 740.689 371.199C747.322 391.125 754.226 410.954 761.211 430.759C761.934 432.811 762.653 434.865 763.371 436.919C776.675 474.951 792.729 511.472 816.712 544.053C822.937 552.552 827.575 560.103 827 571C826.295 574.463 825.235 577.693 824 581C823.412 582.794 823.412 582.794 822.812 584.625C822.544 585.409 822.276 586.192 822 587C827.225 591.656 832.578 596.128 838.008 600.543C841.783 603.643 845.504 606.802 849.216 609.977C852.565 612.83 855.992 615.529 859.5 618.188C864.679 622.28 867.915 626.745 870 633C871.273 647.773 859.854 659.312 851 670C850.566 670.526 850.131 671.052 849.684 671.594C842.723 679.988 835.392 687.865 827.571 695.461C823.667 699.285 819.83 703.176 815.98 707.055C814.542 708.501 813.102 709.947 811.663 711.392C810.684 712.376 809.706 713.361 808.728 714.347C803.501 719.62 798.254 724.815 792.589 729.622C791.203 730.824 789.905 732.124 788.625 733.438C787 735 787 735 785 735C785 735.66 785 736.32 785 737C783.742 738.27 783.742 738.27 781.875 739.813C777.807 743.265 773.895 746.856 770 750.5C765.789 754.43 761.55 758.302 757.188 762.063C754.074 764.82 751.041 767.663 748 770.5C743.766 774.45 739.507 778.347 735.121 782.129C732.202 784.704 729.354 787.353 726.5 790C722.371 793.828 718.215 797.609 713.957 801.293C711.614 803.336 709.307 805.417 707 807.5C703.38 810.767 699.73 813.995 696.051 817.195C693.739 819.23 691.465 821.302 689.188 823.375C685.648 826.577 682.029 829.631 678.312 832.625C674.532 835.683 671.043 838.838 667.664 842.328C665.278 844.725 662.727 846.909 660.168 849.117C657.752 851.216 655.375 853.354 653 855.5C647.64 860.332 642.23 865.098 636.742 869.785C635.536 870.815 634.331 871.845 633.125 872.875C632.516 873.395 631.908 873.914 631.281 874.45C627.744 877.479 624.256 880.552 620.812 883.688C617.499 886.698 614.111 889.566 610.625 892.375C606.671 895.569 602.896 898.902 599.188 902.375C594.396 906.846 589.396 910.944 584.207 914.945C580.422 917.866 576.756 920.886 573.125 924C554.393 939.669 535.224 951.131 510 950C510 950.66 510 951.32 510 952C509.242 951.575 509.242 951.575 508.469 951.141C505.892 949.95 503.292 949.143 500.57 948.353C487.361 944.506 476.67 938.425 465.702 930.255C464.039 929.029 462.359 927.834 460.668 926.648C459.664 925.939 458.66 925.23 457.625 924.5C456.73 923.871 455.836 923.242 454.914 922.594C454.282 922.068 453.651 921.542 453 921C453 920.34 453 919.68 453 919C452.473 918.782 451.946 918.564 451.402 918.34C448.098 916.497 445.391 914.048 442.562 911.563C441.309 910.474 440.055 909.385 438.801 908.297C438.167 907.746 437.534 907.195 436.881 906.627C434.028 904.16 431.138 901.738 428.25 899.313C423.488 895.301 418.833 891.188 414.219 887.008C412.198 885.18 410.173 883.359 408.125 881.563C407.612 881.11 407.099 880.658 406.57 880.191C405.025 878.927 405.025 878.927 403.117 878.152C400.207 876.568 398.295 874.384 396 872C393.982 870.058 391.931 868.152 389.875 866.25C389.304 865.722 388.734 865.194 388.146 864.65C384.73 861.516 381.248 858.521 377.625 855.625C371.612 850.8 366.062 845.523 360.453 840.242C350.507 830.576 350.507 830.576 339 823C338.361 822.175 337.721 821.35 337.062 820.5C334.691 817.585 332.062 815.339 329.125 813C323.457 808.484 318.199 803.605 312.952 798.609C312.337 798.027 311.723 797.444 311.09 796.844C310.542 796.32 309.994 795.796 309.429 795.256C308.004 793.896 308.004 793.896 306 793C306 792.34 306 791.68 306 791C305.466 790.785 304.933 790.569 304.383 790.348C301.123 788.504 298.572 786 295.875 783.438C292.236 779.814 292.236 779.814 288 777C288 776.34 288 775.68 288 775C287.411 774.743 286.822 774.487 286.215 774.223C283.811 772.896 282.397 771.466 280.562 769.438C277.7 766.446 276.088 765.701 272 765C271.658 763.964 271.658 763.964 271.309 762.906C269.406 758.68 266.289 756.186 262.875 753.125C261.859 752.197 261.859 752.197 260.823 751.251C258.891 749.491 256.948 747.743 255 746C254.121 745.209 253.242 744.417 252.336 743.602C249.622 741.192 247.026 739.017 244 737C244 736.34 244 735.68 244 735C243.415 734.743 242.83 734.487 242.227 734.223C239.808 732.894 238.268 731.435 236.375 729.438C233.955 726.86 233.955 726.86 231 725C231 724.34 231 723.68 231 723C230.451 722.78 229.902 722.559 229.336 722.332C226.273 720.585 224.041 718.211 221.625 715.688C218.637 712.618 215.676 709.602 212.312 706.938C211.549 706.298 210.786 705.659 210 705C210 704.34 210 703.68 210 703C209.46 702.786 208.92 702.572 208.363 702.352C205.15 700.514 202.751 698.003 200.188 695.375C199.652 694.832 199.116 694.29 198.565 693.73C195.194 690.291 191.947 686.776 188.828 683.105C186.97 680.966 185.045 678.898 183.106 676.832C158.13 650.094 158.13 650.094 157.973 637.883C158.581 628.621 163.316 622.942 170 617C172.703 614.745 175.433 612.528 178.176 610.32C180.858 608.117 183.436 605.84 186 603.5C190.416 599.473 194.993 595.686 199.652 591.945C200.814 590.982 200.814 590.982 202 590C202.615 589.513 203.23 589.025 203.863 588.523C205.231 587.028 205.231 587.028 204.891 584.844C204.679 584.07 204.468 583.297 204.25 582.5C203.948 581.34 203.948 581.34 203.641 580.156C203.127 578.427 202.57 576.711 202 575C200.464 560.4 205.748 551.438 214.461 540.18C216.192 538.172 216.192 538.172 216 536C216.557 535.46 217.114 534.92 217.688 534.363C220.708 531.277 222.775 527.872 225 524.187C225.474 523.405 225.948 522.622 226.437 521.816C251.519 479.815 266.791 433.378 281.779 387.084C285.787 374.705 289.878 362.361 294.125 350.062C298.092 338.572 302.023 327.071 305.879 315.542C306.413 313.947 306.948 312.352 307.484 310.757C308.225 308.55 308.963 306.341 309.699 304.133C309.918 303.482 310.138 302.832 310.363 302.162C311.48 298.796 312.379 295.491 313 292C313.325 290.665 313.655 289.33 314 288C314.33 288.33 314.66 288.66 315 289C315.837 286.543 316.67 284.084 317.5 281.625C317.738 280.926 317.977 280.228 318.223 279.508C319.537 275.836 319.537 275.836 320 272C320.66 272 321.32 272 322 272C322.112 271.148 322.225 270.296 322.341 269.418C323.039 265.799 324.156 262.72 325.547 259.309C325.8 258.682 326.053 258.055 326.314 257.41C327.12 255.417 327.935 253.427 328.75 251.438C329.546 249.48 330.34 247.523 331.134 245.565C331.66 244.266 332.188 242.968 332.716 241.67C334.378 237.577 335.978 233.464 337.543 229.332C340.009 222.876 342.75 216.561 345.562 210.25C346.265 208.663 346.265 208.663 346.982 207.043C347.894 204.985 348.809 202.928 349.727 200.873C350.552 199.011 351.364 197.143 352.16 195.268C352.508 194.452 352.856 193.637 353.215 192.797C353.514 192.084 353.813 191.371 354.121 190.636C355 189 355 189 357 188C357.282 187.144 357.565 186.288 357.855 185.406C359.203 181.395 361.115 178.095 363.312 174.5C363.691 173.862 364.069 173.224 364.459 172.566C372.601 159.093 385.044 151.46 398.08 143.232C399.876 142.08 401.634 140.883 403.391 139.672C406 138 406 138 408 138C408.33 137.34 408.66 136.68 409 136C410.333 135.667 411.667 135.333 413 135C413.33 134.34 413.66 133.68 414 133C415.464 132.085 416.974 131.244 418.5 130.438C419.968 129.654 419.968 129.654 421.465 128.855C423.36 127.861 425.256 126.866 427.153 125.874C428.687 125.071 430.221 124.266 431.754 123.461C433.279 122.661 434.807 121.864 436.336 121.072C437.041 120.703 437.746 120.334 438.473 119.953C439.104 119.625 439.736 119.296 440.387 118.958C442.184 117.98 442.184 117.98 444 116C446.361 114.746 448.724 113.546 451.125 112.375C452.596 111.65 454.068 110.925 455.539 110.199C456.288 109.831 457.038 109.463 457.81 109.083C459.805 108.097 461.791 107.094 463.773 106.082C467.829 104.014 471.908 101.995 476 100C477.395 99.3194 477.395 99.3194 478.817 98.625C504.638 86.1262 520.621 83.7389 547 96Z" fill="#010001"/>
<path d="M539 115C540.299 115.645 540.299 115.645 541.625 116.303C555.826 123.477 569.17 131.603 582 141C582.749 141.547 583.498 142.094 584.27 142.657C604.505 157.537 626.212 175.555 635 200C634.67 200.66 634.34 201.32 634 202C633.221 201.345 632.443 200.69 631.641 200.016C611.622 183.537 588.519 171.162 563 166C563.56 166.352 564.12 166.704 564.696 167.066C570.203 170.619 575.025 174.469 579.75 179C580.434 179.649 581.118 180.299 581.823 180.968C591.946 190.674 601.333 200.971 610 212C611.164 213.471 611.164 213.471 612.352 214.973C618.68 223.08 624.642 231.425 630.515 239.867C631.934 241.905 633.359 243.939 634.785 245.973C641.857 256.107 648.51 266.484 655 277C655.55 277.89 656.099 278.779 656.666 279.696C658.328 282.396 659.978 285.103 661.625 287.813C662.134 288.642 662.643 289.472 663.168 290.327C665.661 294.466 667.713 298.298 669 303C665.23 299.385 662.031 295.591 658.875 291.438C654.413 285.657 649.702 280.235 644.703 274.914C642.709 272.764 640.791 270.597 638.887 268.371C634.51 263.346 629.804 258.654 625.085 253.954C623.565 252.44 622.051 250.921 620.537 249.4C615.197 244.057 609.764 238.889 604 234C602.536 232.714 602.536 232.714 601.043 231.402C576.214 209.97 542.66 182.547 508 185C463.94 192.799 421.987 235.545 393 267C392.026 268.048 391.052 269.097 390.078 270.145C385.355 275.271 380.836 280.522 376.461 285.949C374.667 288.173 372.861 290.382 371.039 292.582C360.416 305.451 349.928 318.635 341.332 332.969C340.048 334.928 338.674 336.377 337 338C339 330.376 341.905 323.501 345.375 316.438C346.165 314.814 346.165 314.814 346.971 313.158C356.374 293.958 366.383 275.222 377.316 256.85C378.901 254.168 380.456 251.471 382 248.766C397.691 221.436 415.305 192.964 437 170C438.479 168.292 439.958 166.583 441.438 164.875C445.835 159.965 450.73 155.939 456 152C448.215 156.009 441.054 160.882 433.816 165.782C432.223 166.85 430.613 167.894 429 168.934C414.42 178.35 400.976 189.502 388 201C387.044 201.844 386.087 202.689 385.102 203.559C376.387 211.402 368.164 219.74 359.916 228.068C357.949 230.051 355.976 232.027 354 234C358.2 222.863 364.2 212.947 372 204C372.942 202.878 373.882 201.754 374.82 200.629C384.865 188.647 395.548 178.425 408 169C409.297 168.008 410.594 167.016 411.891 166.023C420.439 159.517 429.164 153.31 438.069 147.303C439.917 146.056 441.759 144.802 443.602 143.547C447.374 140.989 451.18 138.486 455 136C455.769 135.497 456.538 134.994 457.331 134.476C481.759 118.604 509.841 100.465 539 115Z" fill="#330000"/>
<path d="M143 650C146.36 653.131 148.919 656.605 151.5 660.375C156.466 667.481 161.96 674.02 167.691 680.517C169.368 682.418 171.026 684.335 172.688 686.25C173.791 687.501 174.895 688.751 176 690C176.618 690.703 177.236 691.406 177.873 692.13C183.51 698.476 189.383 704.539 195.396 710.526C196.964 712.089 198.526 713.656 200.088 715.225C201.088 716.224 202.089 717.224 203.09 718.223C204.434 719.565 204.434 719.565 205.804 720.934C207.822 723.031 207.822 723.031 210 724C210 724.66 210 725.32 210 726C210.589 726.258 211.178 726.516 211.785 726.781C214.185 728.102 215.588 729.49 217.438 731.5C221.423 735.613 225.749 739.018 230.344 742.41C233.869 745.035 236.94 747.851 240 751C246.133 756.77 252.453 762.248 259.004 767.535C262.457 770.376 265.822 773.306 269.188 776.25C275.069 781.386 281.067 786.354 287.146 791.254C291.438 794.717 295.677 798.235 299.875 801.812C303.763 805.119 307.666 808.404 311.625 811.625C312.401 812.257 313.177 812.888 313.977 813.539C316.033 815.177 316.033 815.177 319 816C319.763 816.949 320.526 817.898 321.313 818.875C324.802 823.106 329.011 826.278 333.335 829.595C337.735 832.98 341.992 836.489 346.188 840.125C351.107 844.385 356.09 848.545 361.145 852.645C364.536 855.442 367.861 858.312 371.188 861.188C375.45 864.869 379.748 868.408 384.297 871.734C388.455 874.824 392.264 878.304 396.047 881.836C401.829 887.234 407.522 892.427 414 897C413.67 897.66 413.34 898.32 413 899C348.198 877.64 283.522 848.443 227 810C226.34 810.66 225.68 811.32 225 812C224.901 811.111 224.901 811.111 224.801 810.203C223.673 807.099 222.008 806.412 219.188 804.75C210.553 799.517 202.166 793.939 194 788C193.34 788.33 192.68 788.66 192 789C191.782 788.426 191.564 787.853 191.34 787.262C189.566 784.268 187.394 782.817 184.563 780.812C183.594 780.118 182.626 779.423 181.629 778.707C179.054 776.878 179.054 776.878 176 776C174.825 774.846 173.654 773.686 172.513 772.498C169.504 769.519 166.156 766.92 162.875 764.25C162.117 763.628 161.358 763.006 160.577 762.365C157.388 759.752 154.19 757.152 150.969 754.578C144.809 749.643 139.023 744.39 133.3 738.959C130.456 736.263 127.611 733.653 124.551 731.203C123.709 730.476 122.867 729.749 122 729C122 728.34 122 727.68 122 727C121.405 726.734 120.809 726.469 120.196 726.195C117.936 724.965 116.594 723.762 114.863 721.875C114.29 721.256 113.717 720.636 113.127 719.998C112.528 719.339 111.929 718.679 111.313 718C110.693 717.325 110.073 716.65 109.434 715.955C108.191 714.6 106.951 713.243 105.714 711.883C104.236 710.259 102.749 708.643 101.258 707.031C97.1431 702.542 93.4486 698.016 90 693C89.34 692.34 88.68 691.68 88 691C86.6224 688.317 85.9589 686.573 86.1763 683.546C87.2376 680.266 88.5077 679.452 91.3672 677.574C92.2731 676.979 93.179 676.384 94.1124 675.771C98.7012 672.957 103.376 670.345 108.125 667.812C109.062 667.305 109.999 666.798 110.965 666.275C115.147 664.021 119.337 661.824 123.617 659.762C127.046 658.396 127.046 658.396 128 656C129.664 655.653 131.331 655.322 133 655C134.796 654.2 136.568 653.345 138.313 652.438C139.196 651.982 140.079 651.527 140.988 651.059C141.652 650.709 142.316 650.36 143 650Z" fill="#330000"/>
<path d="M883 651C887.423 651.552 890.755 652.656 894.695 654.723C895.741 655.261 896.786 655.799 897.863 656.354C898.94 656.917 900.016 657.481 901.125 658.062C903.27 659.186 905.418 660.302 907.57 661.41C908.517 661.907 909.463 662.403 910.438 662.914C913.15 664.26 913.15 664.26 917 664C917.33 664.99 917.66 665.98 918 667C920.317 668.359 922.595 669.57 925 670.75C940.928 678.926 940.928 678.926 942.859 684.465C943.31 692.592 932.326 701.663 927.211 707.453C924.066 710.964 920.806 714.332 917.391 717.582C915.887 718.97 915.887 718.97 915 721C914.34 721 913.68 721 913 721C912.78 721.557 912.559 722.114 912.332 722.688C910.569 725.748 908.325 727.652 905.688 730C904.599 730.976 903.51 731.953 902.422 732.93C901.858 733.433 901.294 733.937 900.713 734.456C898.472 736.476 896.272 738.538 894.07 740.6C888.824 745.502 883.464 750.173 877.859 754.668C875.212 756.827 872.634 759.043 870.061 761.289C856.789 772.852 842.435 782.955 828 793C827.33 793.468 826.659 793.936 825.969 794.418C801.178 811.704 775.469 827.384 748.76 841.536C746.173 842.908 743.591 844.292 741.012 845.68C732.033 850.485 722.953 855.019 713.73 859.339C708.871 861.615 704.068 863.974 699.285 866.406C692.081 870.042 684.703 873.226 677.25 876.312C676.591 876.587 675.932 876.862 675.254 877.144C665.675 881.135 656.053 885.006 646.375 888.75C644.759 889.377 644.759 889.377 643.11 890.017C641.613 890.589 641.613 890.589 640.086 891.172C639.22 891.503 638.354 891.834 637.462 892.175C635 893 635 893 632.245 893.489C631.134 893.742 631.134 893.742 630 894C629.505 894.99 629.505 894.99 629 896C626.715 896.633 626.715 896.633 623.938 897.125C623.018 897.293 622.099 897.46 621.152 897.633C620.442 897.754 619.732 897.875 619 898C619 898.66 619 899.32 619 900C618.01 899.67 617.02 899.34 616 899C617.349 894.952 619.457 894.287 623 892C624.76 890.472 626.489 888.908 628.188 887.312C632.684 883.161 637.304 879.248 642.062 875.402C647.186 871.212 652.183 866.873 657.197 862.553C661.871 858.527 666.556 854.514 671.245 850.505C673.067 848.942 674.883 847.372 676.699 845.801C677.883 844.784 679.066 843.767 680.25 842.75C680.799 842.272 681.348 841.793 681.914 841.301C685.773 838 685.773 838 688 838C688 837.34 688 836.68 688 836C689.73 834.441 689.73 834.441 692.188 832.562C696.304 829.35 700.337 826.071 704.312 822.688C705.137 821.987 705.137 821.987 705.978 821.273C707.653 819.85 709.327 818.425 711 817C718.833 810.331 726.724 803.741 734.676 797.214C740.252 792.631 745.772 787.987 751.266 783.305C753.068 781.785 754.891 780.29 756.734 778.82C759.025 777.047 759.025 777.047 761 775C762.178 774.113 763.367 773.239 764.562 772.375C768.44 769.495 772.009 766.366 775.59 763.129C778.13 760.886 780.737 758.752 783.375 756.625C788.228 752.688 792.858 748.557 797.457 744.328C799.571 742.393 801.707 740.498 803.875 738.625C806.393 736.447 808.85 734.215 811.277 731.938C811.86 731.393 812.442 730.848 813.042 730.287C814.205 729.195 815.365 728.099 816.521 726.999C818.998 724.677 820.739 723.087 824 722C824.33 721.01 824.66 720.02 825 719C825.66 719 826.32 719 827 719C827.264 718.397 827.529 717.793 827.801 717.172C829.058 714.896 830.154 713.832 832.188 712.25C835.605 709.441 838.4 706.358 841.258 702.992C842.891 701.125 844.589 699.407 846.375 697.688C850.08 694.04 853.297 690.062 856.551 686.012C858.233 683.943 859.925 681.909 861.668 679.895C869.521 670.815 876.947 661.399 883 651Z" fill="#330000"/>
<path d="M535 207C536.173 207.513 537.346 208.026 538.555 208.555C562.327 219.467 583.548 236.723 603 254C603.503 254.445 604.006 254.89 604.524 255.349C615.97 265.525 627.152 276.256 637 288C637.896 289.034 638.793 290.066 639.691 291.098C668.133 323.831 693.628 359.988 708.137 401.109C708.373 401.777 708.609 402.444 708.853 403.132C714.131 418.065 718.894 433.147 723.56 448.281C724.61 451.682 725.668 455.08 726.725 458.479C729.886 468.655 733.033 478.835 736.151 489.024C740.526 503.314 745.061 517.541 749.734 531.735C750.573 534.283 751.408 536.833 752.242 539.383C752.616 540.511 752.616 540.511 752.997 541.662C759.071 560.234 758.86 577.408 750.496 595.199C740.503 613.62 723.65 628.694 707 641C706.416 641.434 705.831 641.869 705.229 642.316C687.393 655.514 667.984 666.707 647.75 675.813C646.994 676.156 646.237 676.5 645.458 676.854C643.666 677.636 641.836 678.328 640 679C639.34 678.67 638.68 678.34 638 678C639.018 677.285 640.037 676.569 641.086 675.832C650.999 668.857 660.866 661.822 670.669 654.693C672.25 653.545 673.833 652.399 675.417 651.256C686.015 643.609 696.346 635.822 706 627C706.532 626.519 707.064 626.037 707.612 625.541C724.074 610.478 735.211 590.505 736.238 567.863C736.268 566.346 736.293 564.83 736.312 563.313C736.356 562.252 736.356 562.252 736.4 561.17C736.626 540.656 728.572 519.137 723.385 499.454C722.47 495.979 721.56 492.502 720.658 489.023C715.678 469.836 710.463 450.751 704.629 431.805C704.382 431.001 704.135 430.198 703.881 429.371C692.843 393.572 677.656 360.466 654.445 330.847C653.003 329.004 651.578 327.148 650.156 325.289C645.116 318.739 639.88 312.5 634.258 306.438C632.338 304.365 630.47 302.264 628.625 300.125C620.062 290.321 611.227 281.09 601.542 272.394C600.09 271.082 598.658 269.748 597.227 268.414C575.291 248.023 543.432 220.324 512.047 220.512C505.045 220.788 499.272 222.92 493 226C492.414 226.284 491.828 226.568 491.224 226.861C456.749 243.764 424.464 271.901 399.691 301.031C397.761 303.278 395.756 305.446 393.75 307.625C388.163 313.826 383.077 320.382 378 327C377.511 327.632 377.022 328.264 376.518 328.916C368.779 338.934 361.668 349.239 355 360C354.314 361.091 353.628 362.181 352.922 363.305C332.544 397.185 323.223 437.201 313 475C312.505 476.827 312.009 478.654 311.513 480.48C308.508 491.566 305.54 502.661 302.595 513.762C301.849 516.57 301.096 519.376 300.344 522.182C299.536 525.203 298.737 528.227 297.938 531.25C297.663 532.272 297.388 533.293 297.104 534.346C290.482 559.641 292.141 583.203 305.137 606.172C308.899 611.883 313.422 616.935 318 622C318.878 622.986 318.878 622.986 319.773 623.992C325.494 630.061 332.391 634.952 339 640C339.605 640.465 340.209 640.931 340.832 641.41C352.081 650.057 363.706 658.145 375.385 666.197C378.337 668.232 381.285 670.274 384.232 672.318C386.486 673.88 388.743 675.44 391 677C390.34 677.33 389.68 677.66 389 678C386.777 677.066 386.777 677.066 383.938 675.563C379.68 673.353 375.413 671.255 371.045 669.274C344.34 657.091 320.238 640.188 299 620C298.018 619.097 298.018 619.097 297.016 618.176C283.294 605.178 273.269 587.681 272.609 568.579C272.594 567.831 272.578 567.083 272.562 566.313C272.54 565.643 272.518 564.974 272.494 564.284C272.555 550.937 277.586 537.676 282.027 525.255C289.056 505.528 295.25 485.553 301.401 465.541C303.54 458.584 305.686 451.63 307.832 444.676C308.06 443.936 308.289 443.197 308.524 442.435C320.522 403.583 332.918 367.271 357 334C357.539 333.25 358.078 332.5 358.633 331.728C366.283 321.103 374.241 310.791 382.594 300.71C383.829 299.207 385.042 297.685 386.25 296.16C399.635 279.302 415.332 262.669 432 249C432.542 248.55 433.083 248.1 433.642 247.636C452.98 231.576 473.485 215.433 497 206C497.722 205.665 498.444 205.33 499.188 204.984C510.414 200.307 524.225 202.177 535 207Z" fill="#D59853"/>
<path d="M204.934 620.609C207.655 622.441 208.545 624.348 210.062 627.25C216.673 639.048 225.845 649.159 234.626 659.383C235.965 660.958 237.278 662.552 238.586 664.152C245.057 671.995 252.065 679.254 259.25 686.437C259.722 686.91 260.193 687.383 260.68 687.87C265.682 692.871 270.739 697.745 276.105 702.353C279.452 705.263 282.654 708.328 285.875 711.375C291.848 716.996 297.847 722.575 304 728C304.544 728.481 305.089 728.963 305.65 729.459C313.926 736.763 322.358 743.788 331.099 750.528C333.143 752.111 335.178 753.707 337.211 755.305C347.215 763.154 357.36 770.789 367.639 778.275C369.99 779.992 372.331 781.722 374.672 783.453C388.753 793.82 403.2 802.515 419 810C420.081 810.523 421.163 811.047 422.277 811.586C443.857 821.474 467.17 825.77 490.632 827.911C491.812 828.024 492.991 828.137 494.207 828.254C495.274 828.35 496.341 828.446 497.441 828.545C500 829 500 829 502 831C502.188 833.59 502.252 836.072 502.227 838.663C502.227 839.453 502.228 840.243 502.228 841.058C502.227 843.676 502.211 846.295 502.195 848.914C502.192 850.727 502.189 852.54 502.187 854.354C502.179 859.131 502.159 863.908 502.137 868.686C502.117 873.559 502.108 878.432 502.098 883.305C502.076 892.87 502.042 902.435 502 912C496.783 910.293 492.276 908.172 487.5 905.5C486.705 905.056 485.911 904.611 485.092 904.154C477.664 899.926 470.805 895.154 464 890C462.989 889.243 462.989 889.243 461.957 888.472C449.618 879.24 437.853 869.542 426.453 859.172C423.9 856.912 421.28 854.764 418.625 852.625C413.476 848.459 408.614 844.044 403.758 839.547C400.232 836.291 396.63 833.137 393 830C391.889 829.035 390.778 828.07 389.668 827.105C377.386 816.439 365.038 805.853 352.609 795.359C350.447 793.533 348.287 791.705 346.127 789.877C345.044 788.961 343.962 788.045 342.879 787.129C340.144 784.815 337.41 782.5 334.68 780.18C329.675 775.93 324.658 771.703 319.562 767.562C314.14 763.147 308.839 758.6 303.539 754.039C300.208 751.174 296.857 748.334 293.5 745.5C284.033 737.501 274.598 729.486 265.43 721.145C262.826 718.847 260.146 716.672 257.437 714.5C253.044 710.948 249.06 707.169 245.121 703.125C242.497 700.496 239.716 698.096 236.898 695.68C234.416 693.483 232.118 691.13 229.797 688.766C227.234 686.247 224.525 683.914 221.797 681.578C220.116 680.102 218.488 678.671 217 677C217 676.34 217 675.68 217 675C216.34 675 215.68 675 215 675C213.59 673.602 213.59 673.602 211.937 671.625C209.28 668.485 206.556 665.445 203.75 662.437C199.954 658.203 196.387 653.831 192.937 649.312C192.448 648.695 191.958 648.077 191.454 647.441C188.304 643.221 187.33 640.429 188 635C190.251 630.4 198.991 618.737 204.934 620.609Z" fill="#330000"/>
<path d="M788 637C788 640.958 786.753 641.667 784.062 644.5C780.908 647.839 778.004 651.253 775.156 654.859C769.409 661.927 762.981 668.283 756.516 674.69C754.432 676.755 752.357 678.828 750.283 680.902C748.938 682.243 747.592 683.583 746.246 684.922C745.637 685.529 745.029 686.137 744.402 686.763C740.676 690.448 736.836 693.956 732.864 697.376C729.663 700.164 726.589 703.088 723.5 706C719.048 710.177 714.58 714.313 709.953 718.297C707.434 720.494 704.969 722.747 702.5 725C697.003 730.008 691.44 734.922 685.781 739.746C679.237 745.328 672.773 750.966 666.434 756.781C664.376 758.657 662.296 760.494 660.187 762.312C655.735 766.177 651.448 770.216 647.138 774.237C643.494 777.63 639.807 780.956 636.039 784.211C631.816 787.916 627.706 791.747 623.573 795.552C617.407 801.228 611.237 806.901 605 812.5C599.294 817.624 593.643 822.807 588 828C587.486 828.473 586.971 828.946 586.441 829.434C582.621 832.949 578.808 836.472 575 840C574.056 840.874 574.056 840.874 573.094 841.765C566.54 847.839 560.018 853.915 553.746 860.281C551.308 862.681 548.74 864.91 546.145 867.137C542.831 870.016 539.618 873.005 536.395 875.984C534.041 877.966 531.65 879.451 529 881C528.797 873.296 528.657 865.592 528.561 857.886C528.52 855.266 528.466 852.646 528.396 850.027C528.299 846.256 528.254 842.487 528.219 838.715C528.177 837.548 528.136 836.381 528.094 835.179C528.089 827.195 528.089 827.195 530.719 823.744C532.732 821.96 534.747 820.463 537 819C538.096 818.175 539.19 817.347 540.281 816.516C541.343 815.768 542.406 815.02 543.5 814.25C544.093 813.831 544.687 813.412 545.298 812.98C549.754 809.842 554.252 806.765 558.75 803.688C575.76 792.051 592.267 779.693 608.824 767.426C618.443 760.307 628.136 753.314 637.938 746.45C639.964 745.025 641.981 743.589 643.996 742.148C653.203 735.577 662.558 729.254 671.983 723C680.614 717.271 689.171 711.443 697.706 705.572C700.041 703.972 702.385 702.383 704.73 700.797C724.543 687.38 743.487 672.976 762.018 657.853C767.068 653.738 772.168 649.691 777.309 645.689C780.935 642.862 784.481 639.959 788 637Z" fill="#330000"/>
<path d="M143 650C146.36 653.131 148.919 656.605 151.5 660.375C156.466 667.481 161.96 674.02 167.691 680.517C169.368 682.418 171.026 684.335 172.688 686.25C173.791 687.501 174.895 688.751 176 690C176.618 690.703 177.236 691.406 177.873 692.13C183.51 698.476 189.383 704.539 195.396 710.526C196.964 712.089 198.526 713.656 200.088 715.225C201.088 716.224 202.089 717.224 203.09 718.223C204.434 719.565 204.434 719.565 205.804 720.934C207.822 723.031 207.822 723.031 210 724C210 724.66 210 725.32 210 726C210.589 726.258 211.178 726.516 211.785 726.781C214.185 728.102 215.588 729.49 217.438 731.5C221.423 735.613 225.749 739.018 230.344 742.41C233.869 745.035 236.94 747.851 240 751C246.113 756.752 252.411 762.214 258.941 767.484C265.071 772.526 271.022 777.78 277 783C273.126 783 272.183 781.773 269.188 779.375C265.174 776.373 261.475 774.199 256.813 772.375C225.537 759.661 194.271 736.54 168.906 714.508C166.15 712.129 163.34 709.84 160.5 707.562C155.672 703.652 151.132 699.487 146.678 695.16C143.054 691.715 139.509 689.202 135 687C131.324 687.184 128.476 687.841 125 689C124.11 695.972 126.876 699.551 131 705C133.457 707.878 136.05 710.601 138.688 713.312C140.119 714.808 141.55 716.304 142.981 717.801C143.672 718.521 144.363 719.241 145.076 719.983C147.591 722.62 150.049 725.303 152.5 728C163.589 740.121 174.897 751.995 186.5 763.625C187.013 764.14 187.525 764.655 188.053 765.186C193.328 770.481 198.621 775.708 204.331 780.539C206.084 782.074 207.699 783.695 209.313 785.375C212.938 789.058 216.894 792.248 220.918 795.484C224.294 798.24 227.584 801.082 230.875 803.938C235.983 808.357 241.21 812.563 246.602 816.63C249.305 818.674 251.892 820.757 254.375 823.062C264.009 831.487 276.712 837.124 288 843C285 844 285 844 283.176 843.374C282.49 843.016 281.804 842.658 281.098 842.289C280.303 841.877 279.509 841.465 278.69 841.04C277.823 840.573 276.956 840.106 276.063 839.625C275.155 839.143 274.248 838.662 273.314 838.165C257.454 829.606 241.888 820.15 227 810C226.34 810.66 225.68 811.32 225 812C224.901 811.111 224.901 811.111 224.801 810.203C223.673 807.099 222.008 806.412 219.188 804.75C210.553 799.517 202.166 793.939 194 788C193.34 788.33 192.68 788.66 192 789C191.782 788.426 191.564 787.853 191.34 787.262C189.566 784.268 187.394 782.817 184.563 780.812C183.594 780.118 182.626 779.423 181.629 778.707C179.054 776.878 179.054 776.878 176 776C174.825 774.846 173.654 773.686 172.513 772.498C169.504 769.519 166.156 766.92 162.875 764.25C162.117 763.628 161.358 763.006 160.577 762.365C157.388 759.752 154.19 757.152 150.969 754.578C144.809 749.643 139.023 744.39 133.3 738.959C130.456 736.263 127.611 733.653 124.551 731.203C123.709 730.476 122.867 729.749 122 729C122 728.34 122 727.68 122 727C121.405 726.734 120.809 726.469 120.196 726.195C117.936 724.965 116.594 723.762 114.863 721.875C114.29 721.256 113.717 720.636 113.127 719.998C112.528 719.339 111.929 718.679 111.313 718C110.693 717.325 110.073 716.65 109.434 715.955C108.191 714.6 106.951 713.243 105.714 711.883C104.236 710.259 102.749 708.643 101.258 707.031C97.1431 702.542 93.4486 698.016 90 693C89.34 692.34 88.68 691.68 88 691C86.6224 688.317 85.9589 686.573 86.1763 683.546C87.2376 680.266 88.5077 679.452 91.3672 677.574C92.2731 676.979 93.179 676.384 94.1124 675.771C98.7012 672.957 103.376 670.345 108.125 667.812C109.062 667.305 109.999 666.798 110.965 666.275C115.147 664.021 119.337 661.824 123.617 659.762C127.046 658.396 127.046 658.396 128 656C129.664 655.653 131.331 655.322 133 655C134.796 654.2 136.568 653.345 138.313 652.438C139.196 651.982 140.079 651.527 140.988 651.059C141.652 650.709 142.316 650.36 143 650Z" fill="#020102"/>
<path d="M883 651C887.423 651.552 890.755 652.656 894.695 654.723C895.741 655.261 896.786 655.799 897.863 656.354C898.94 656.917 900.016 657.481 901.125 658.062C903.27 659.186 905.418 660.302 907.57 661.41C908.517 661.907 909.463 662.403 910.438 662.914C913.15 664.26 913.15 664.26 917 664C917.33 664.99 917.66 665.98 918 667C920.317 668.359 922.595 669.57 925 670.75C940.928 678.926 940.928 678.926 942.859 684.465C943.31 692.592 932.326 701.663 927.211 707.453C924.066 710.964 920.806 714.332 917.391 717.582C915.887 718.97 915.887 718.97 915 721C914.34 721 913.68 721 913 721C912.78 721.557 912.559 722.114 912.332 722.688C910.569 725.748 908.325 727.652 905.688 730C904.599 730.976 903.51 731.953 902.422 732.93C901.858 733.433 901.294 733.937 900.713 734.456C898.472 736.476 896.272 738.538 894.07 740.6C888.824 745.502 883.464 750.173 877.859 754.668C875.212 756.827 872.633 759.043 870.061 761.289C856.789 772.852 842.435 782.955 828 793C827.33 793.468 826.659 793.936 825.969 794.418C818.372 799.715 810.706 804.895 802.938 809.938C802.247 810.386 801.557 810.835 800.846 811.297C798.906 812.547 796.958 813.78 795 815C794.347 815.409 793.693 815.818 793.02 816.239C791.384 817.225 789.696 818.121 788 819C787.34 818.67 786.68 818.34 786 818C786.548 817.573 787.096 817.147 787.66 816.707C799.391 807.456 810.542 797.578 821.37 787.289C824.503 784.315 827.665 781.403 830.938 778.582C835.336 774.762 839.455 770.692 843.562 766.562C844.279 765.85 844.995 765.138 845.732 764.404C849.781 760.348 853.653 756.196 857.394 751.855C859.707 749.183 862.102 746.596 864.5 744C868.739 739.393 872.916 734.744 877 730C877.434 729.497 877.868 728.995 878.316 728.477C884.995 720.745 891.594 712.961 898 705C898.623 704.27 899.245 703.541 899.887 702.789C902.7 699.366 903.919 697.626 904.5 693.125C904.298 689.907 904.298 689.907 902 688C899.77 687.604 899.77 687.604 897.25 687.625C896.41 687.597 895.569 687.568 894.703 687.539C887.726 688.729 882.689 694.97 877.812 699.688C871.418 705.785 864.961 711.553 858 717C856.95 717.841 855.9 718.684 854.852 719.527C830.033 739.387 803.359 757.594 774.19 770.44C768.077 773.205 763.136 776.702 758 781C757.094 781.741 757.094 781.741 756.17 782.497C754.584 783.799 753.01 785.118 751.438 786.438C750.64 787.106 750.64 787.106 749.826 787.787C748.55 788.857 747.275 789.928 746 791C745.34 790.67 744.68 790.34 744 790C745.561 788.582 747.124 787.165 748.688 785.75C749.993 784.567 749.993 784.567 751.324 783.359C753.824 781.155 756.395 779.077 759 777C759.99 776.01 759.99 776.01 761 775C762.178 774.113 763.367 773.239 764.562 772.375C768.44 769.495 772.009 766.366 775.59 763.129C778.13 760.886 780.737 758.752 783.375 756.625C788.228 752.688 792.858 748.557 797.457 744.328C799.571 742.393 801.707 740.498 803.875 738.625C806.393 736.447 808.85 734.215 811.277 731.938C811.86 731.393 812.442 730.848 813.042 730.287C814.205 729.195 815.365 728.099 816.521 726.999C818.998 724.677 820.739 723.087 824 722C824.495 720.515 824.495 720.515 825 719C825.66 719 826.32 719 827 719C827.264 718.397 827.529 717.793 827.801 717.172C829.058 714.896 830.154 713.832 832.188 712.25C835.605 709.441 838.4 706.358 841.258 702.992C842.891 701.125 844.589 699.407 846.375 697.688C850.08 694.04 853.297 690.062 856.551 686.012C858.233 683.943 859.925 681.909 861.668 679.895C869.521 670.815 876.947 661.399 883 651Z" fill="#010101"/>
<path d="M823 620C830.206 622.652 836.978 627.383 841 634C841.665 638.229 840.855 641.567 838.672 645.227C836.882 647.594 834.988 649.797 833 652C832.268 652.828 831.536 653.655 830.781 654.508C829.255 656.217 827.72 657.917 826.176 659.609C824.316 661.653 822.494 663.721 820.688 665.812C810.735 677.216 800.442 688.441 788.93 698.289C786.867 700.118 784.934 702.036 783 704C779.893 707.149 776.675 710.08 773.32 712.961C770.96 715.036 768.66 717.165 766.364 719.31C760.981 724.336 755.492 729.111 749.746 733.723C746.737 736.218 743.861 738.838 741 741.5C736.368 745.81 731.579 749.851 726.648 753.82C724.027 755.978 721.508 758.213 719 760.5C714.354 764.724 709.543 768.699 704.662 772.647C702.772 774.186 700.893 775.738 699.016 777.293C691.822 783.249 684.6 789.152 677.232 794.891C672.833 798.324 668.506 801.84 664.188 805.375C648.44 818.231 632.178 830.325 615.207 841.514C611.225 844.149 607.361 846.88 603.613 849.844C601.826 851.125 599.973 852.036 598 853C603.237 846.655 608.986 840.867 614.805 835.062C615.853 834.013 616.902 832.964 617.95 831.914C620.139 829.724 622.329 827.536 624.521 825.349C627.31 822.565 630.095 819.777 632.879 816.988C635.04 814.822 637.205 812.659 639.37 810.496C640.397 809.47 641.423 808.443 642.448 807.416C647.614 802.241 652.806 797.146 658.377 792.403C660.708 790.388 662.851 788.207 665 786C668.49 782.473 672.047 779.129 675.812 775.902C678.545 773.526 681.211 771.078 683.875 768.625C691.152 761.933 698.482 755.306 705.938 748.812C708.31 746.728 710.656 744.616 713 742.5C715.981 739.81 718.972 737.137 722 734.5C725.85 731.145 729.647 727.734 733.438 724.312C735.913 722.079 738.394 719.852 740.875 717.625C752.407 707.284 752.407 707.284 763.492 696.473C764.915 695.083 766.456 693.817 768 692.562C771.069 689.941 773.549 687.159 776.156 684.094C777.981 682.022 779.892 680.108 781.875 678.188C786.66 673.448 790.838 668.286 795 663C795.502 662.369 796.005 661.738 796.522 661.087C806.832 648.096 815.231 634.655 823 620Z" fill="#330000"/>
<path d="M235 633C239.848 636.517 244.462 640.218 249 644.125C255.787 649.937 262.867 655.307 270.073 660.587C271.291 661.48 272.507 662.376 273.72 663.276C297.619 680.995 323.629 695.661 350.331 708.689C353.434 710.213 356.526 711.76 359.617 713.309C365.674 716.343 371.738 719.361 377.806 722.372C383.258 725.077 388.707 727.787 394.154 730.5C397.701 732.265 401.249 734.029 404.8 735.787C418.655 742.65 432.479 749.528 445.949 757.129C446.844 757.634 447.739 758.139 448.661 758.659C461.283 765.903 472.972 774.52 484 784C485.321 785.12 485.321 785.12 486.668 786.262C491.373 790.325 491.373 790.325 493 792C493 792.66 493 793.32 493 794C493.99 794.33 494.98 794.66 496 795C494 796 494 796 492.088 795.518C491.306 795.232 490.525 794.946 489.719 794.652C488.382 794.168 488.382 794.168 487.018 793.675C486.045 793.315 485.072 792.954 484.07 792.582C482.556 792.029 482.556 792.029 481.012 791.466C477.713 790.257 474.419 789.036 471.125 787.812C470.007 787.4 468.888 786.987 467.736 786.561C451.611 780.601 435.686 774.388 420.002 767.338C416.977 765.99 413.938 764.683 410.891 763.387C388.39 753.765 365.754 743.241 344.982 730.239C342.774 728.859 340.551 727.504 338.328 726.148C327.768 719.653 317.762 712.638 308 705C307.09 704.292 306.18 703.585 305.242 702.855C295.574 695.223 286.217 687.168 277 679C275.956 678.095 275.956 678.095 274.891 677.172C262.634 666.396 251.055 654.862 241 642C239.82 640.64 238.633 639.285 237.438 637.938C235 635 235 635 235 633Z" fill="#330000"/>
<path d="M646 707C646.99 707.495 646.99 707.495 648 708C646.766 709.034 646.766 709.034 645.508 710.09C639.329 715.286 633.226 720.54 627.246 725.965C621.147 731.491 614.879 736.824 608.626 742.175C604.236 745.933 599.864 749.712 595.5 753.5C574.723 771.519 574.723 771.519 566.734 777.824C564.605 779.519 562.493 781.23 560.391 782.957C551.115 790.57 541.655 797.875 532 805C531.34 804.67 530.68 804.34 530 804C536.345 780.013 543.903 757.22 565.946 743.115C575.444 737.652 585.224 733.094 595.25 728.688C596.925 727.945 598.6 727.202 600.275 726.459C613.781 720.479 627.34 714.618 641 709C641.884 708.608 642.767 708.216 643.677 707.812C644.444 707.544 645.21 707.276 646 707Z" fill="#330000"/>
<path d="M336 582C338.301 584.198 340.215 586.52 342.125 589.062C345.422 593.347 348.943 597.363 352.594 601.348C353.869 602.754 355.14 604.165 356.367 605.613C361.792 611.983 367.702 617.853 373.624 623.755C375.434 625.559 377.238 627.368 379.041 629.178C384.361 634.501 389.681 639.749 395.414 644.633C398.292 647.114 400.887 649.869 403.531 652.594C405.562 654.573 407.624 656.424 409.77 658.273C414.106 662.036 418.154 666.042 422.188 670.125C422.873 670.815 423.558 671.504 424.264 672.215C425.582 673.542 426.9 674.871 428.216 676.2C430.47 678.474 432.734 680.738 435 683C431.415 681.685 428.44 680.107 425.297 677.945C424.408 677.337 423.519 676.728 422.603 676.101C421.661 675.449 420.72 674.797 419.75 674.125C418.28 673.113 418.28 673.113 416.78 672.08C413.85 670.059 410.925 668.03 408 666C407.209 665.454 406.417 664.908 405.602 664.346C387.93 652.157 371.151 639.249 356 624C355.354 623.375 354.708 622.75 354.043 622.105C344.637 612.382 336 595.868 336 582Z" fill="#330000"/>
<path d="M694 581C695.957 584.915 692.981 590.537 691.645 594.555C687.535 606.112 681.261 615.942 673 625C672.426 625.632 671.853 626.263 671.262 626.914C666.288 632.114 660.635 636.546 655 641C654.33 641.531 653.659 642.062 652.969 642.608C639.843 652.974 626.399 662.728 612.591 672.159C608.355 675.053 604.166 678.006 600 681C599.34 680.67 598.68 680.34 598 680C601.999 675.189 606.127 670.891 610.898 666.848C613.929 664.183 616.722 661.302 619.531 658.406C621.505 656.482 623.502 654.696 625.594 652.906C631.001 648.215 635.978 643.094 641 638C646.559 632.362 652.113 626.788 658.132 621.636C661.418 618.757 664.486 615.662 667.562 612.562C668.22 611.901 668.878 611.239 669.555 610.557C678.562 601.446 686.882 591.676 694 581Z" fill="#330000"/>
<g filter="url(#filter0_f_2_2118)">
<path d="M520 295C525.62 297.142 530.76 300.068 536 303C538.074 304.139 540.148 305.277 542.223 306.414C553.967 312.878 565.637 319.472 577.297 326.087C583.511 329.608 589.748 333.082 595.998 336.536C608.874 343.654 621.63 350.951 634.305 358.42C636.871 359.924 639.446 361.409 642.027 362.887C643.185 363.554 643.185 363.554 644.367 364.235C645.762 365.039 647.161 365.838 648.563 366.63C656.55 371.259 662.395 375.828 665 385C665.57 390.222 665.548 395.414 665.517 400.658C665.523 402.231 665.53 403.804 665.539 405.377C665.557 409.627 665.55 413.877 665.537 418.127C665.527 422.587 665.536 427.047 665.543 431.507C665.55 438.995 665.54 446.483 665.521 453.971C665.5 462.613 665.507 471.254 665.529 479.896C665.547 487.332 665.549 494.769 665.539 502.205C665.533 506.639 665.532 511.073 665.545 515.507C665.557 519.677 665.549 523.846 665.525 528.016C665.52 529.541 665.522 531.066 665.531 532.591C665.583 542.566 665.166 551 657.875 558.438C653.247 562.147 648.077 564.876 642.876 567.687C635.808 571.508 628.899 575.569 622 579.688C613.04 585.029 604.047 590.306 595 595.5C584.999 601.244 575.065 607.094 565.154 612.991C554.006 619.613 542.775 626.088 531.526 632.536C529.772 633.553 528.03 634.592 526.299 635.647C521.004 638.762 514.967 638.952 509 638C503.392 635.815 498.218 632.984 493 630C492.369 629.641 491.739 629.283 491.089 628.914C486.914 626.522 482.784 624.056 478.657 621.583C473.823 618.703 468.963 615.867 464.107 613.025C461.601 611.558 459.097 610.089 456.592 608.621C451.548 605.664 446.503 602.709 441.457 599.755C420.815 587.673 420.815 587.673 410.773 581.727C410.185 581.378 409.597 581.03 408.992 580.671C406.113 578.966 403.238 577.257 400.364 575.545C395.529 572.666 390.691 569.807 385.781 567.059C376.418 561.798 368.513 557.185 364.653 546.644C363.209 540.8 363.557 534.674 363.564 528.687C363.555 527.138 363.545 525.59 363.534 524.042C363.507 519.854 363.5 515.666 363.498 511.477C363.496 508.855 363.49 506.233 363.482 503.611C363.454 494.449 363.442 485.286 363.444 476.124C363.446 467.607 363.414 459.092 363.367 450.576C363.327 443.244 363.311 435.912 363.313 428.58C363.314 424.21 363.306 419.84 363.274 415.47C363.245 411.356 363.245 407.243 363.266 403.129C363.269 401.628 363.263 400.126 363.244 398.625C363.135 389.012 364.264 381.029 370 373C373.122 370.179 376.335 368.057 380 366C380.823 365.523 381.646 365.045 382.494 364.554C385.037 363.117 387.605 361.74 390.187 360.375C392.136 359.328 394.084 358.28 396.031 357.23C397.021 356.697 398.011 356.164 399.031 355.615C403.783 353.03 408.485 350.361 413.187 347.687C424.932 341.021 436.736 334.463 448.547 327.916C451.991 326.005 455.431 324.089 458.871 322.172C469.989 315.977 481.123 309.815 492.312 303.75C493.798 302.944 493.798 302.944 495.313 302.123C497.871 300.74 500.434 299.368 503 298C504.11 297.401 505.22 296.801 506.363 296.184C511.051 294.079 514.973 294.09 520 295Z" fill="#8B0000"/>
</g>
<path d="M520 295C525.62 297.142 530.76 300.068 536 303C538.074 304.139 540.148 305.277 542.223 306.414C553.967 312.878 565.637 319.472 577.297 326.087C583.511 329.608 589.748 333.082 595.998 336.536C608.874 343.654 621.63 350.951 634.305 358.42C636.871 359.924 639.446 361.409 642.027 362.887C643.185 363.554 643.185 363.554 644.367 364.235C645.762 365.039 647.161 365.838 648.563 366.63C656.55 371.259 662.395 375.828 665 385C665.57 390.222 665.548 395.414 665.517 400.658C665.523 402.231 665.53 403.804 665.539 405.377C665.557 409.627 665.55 413.877 665.537 418.127C665.527 422.587 665.536 427.047 665.543 431.507C665.55 438.995 665.54 446.483 665.521 453.971C665.5 462.613 665.507 471.254 665.529 479.896C665.547 487.332 665.549 494.769 665.539 502.205C665.533 506.639 665.532 511.073 665.545 515.507C665.557 519.677 665.549 523.846 665.525 528.016C665.52 529.541 665.522 531.066 665.531 532.591C665.583 542.566 665.166 551 657.875 558.438C653.247 562.147 648.077 564.876 642.876 567.687C635.808 571.508 628.899 575.569 622 579.688C613.04 585.029 604.047 590.306 595 595.5C584.999 601.244 575.065 607.094 565.154 612.991C554.006 619.613 542.775 626.088 531.526 632.536C529.772 633.553 528.03 634.592 526.299 635.647C521.004 638.762 514.967 638.952 509 638C503.392 635.815 498.218 632.984 493 630C492.369 629.641 491.739 629.283 491.089 628.914C486.914 626.522 482.784 624.056 478.657 621.583C473.823 618.703 468.963 615.867 464.107 613.025C461.601 611.558 459.097 610.089 456.592 608.621C451.548 605.664 446.503 602.709 441.457 599.755C420.815 587.673 420.815 587.673 410.773 581.727C410.185 581.378 409.597 581.03 408.992 580.671C406.113 578.966 403.238 577.257 400.364 575.545C395.529 572.666 390.691 569.807 385.781 567.059C376.418 561.798 368.513 557.185 364.653 546.644C363.209 540.8 363.557 534.674 363.564 528.687C363.555 527.138 363.545 525.59 363.534 524.042C363.507 519.854 363.5 515.666 363.498 511.477C363.496 508.855 363.49 506.233 363.482 503.611C363.454 494.449 363.442 485.286 363.444 476.124C363.446 467.607 363.414 459.092 363.367 450.576C363.327 443.244 363.311 435.912 363.313 428.58C363.314 424.21 363.306 419.84 363.274 415.47C363.245 411.356 363.245 407.243 363.266 403.129C363.269 401.628 363.263 400.126 363.244 398.625C363.135 389.012 364.264 381.029 370 373C373.122 370.179 376.335 368.057 380 366C380.823 365.523 381.646 365.045 382.494 364.554C385.037 363.117 387.605 361.74 390.187 360.375C392.136 359.328 394.084 358.28 396.031 357.23C397.021 356.697 398.011 356.164 399.031 355.615C403.783 353.03 408.485 350.361 413.187 347.687C424.932 341.021 436.736 334.463 448.547 327.916C451.991 326.005 455.431 324.089 458.871 322.172C469.989 315.977 481.123 309.815 492.312 303.75C493.798 302.944 493.798 302.944 495.313 302.123C497.871 300.74 500.434 299.368 503 298C504.11 297.401 505.22 296.801 506.363 296.184C511.051 294.079 514.973 294.09 520 295ZM497.562 321.062C495.346 322.357 493.128 323.649 490.91 324.941C489.76 325.62 488.611 326.298 487.461 326.977C481.87 330.263 476.179 333.369 470.5 336.5C468.234 337.757 465.968 339.015 463.703 340.273C462.59 340.892 461.477 341.51 460.33 342.147C445.059 350.643 429.817 359.192 414.621 367.82C410.771 370.005 406.908 372.162 403.035 374.305C401.127 375.37 399.22 376.435 397.312 377.5C396.433 377.98 395.553 378.461 394.647 378.956C388.283 382.53 384.394 385.914 382 393C381.696 395.91 381.696 395.91 381.732 399.052C381.724 400.268 381.715 401.483 381.707 402.735C381.707 404.074 381.708 405.413 381.709 406.751C381.703 408.168 381.697 409.584 381.689 411C381.671 414.841 381.667 418.682 381.665 422.523C381.664 424.925 381.66 427.327 381.654 429.729C381.636 438.116 381.628 446.502 381.629 454.888C381.63 462.695 381.609 470.501 381.578 478.308C381.552 485.019 381.541 491.73 381.542 498.441C381.543 502.445 381.537 506.449 381.516 510.454C381.496 514.222 381.496 517.99 381.511 521.758C381.514 523.792 381.497 525.825 381.48 527.858C381.535 535.827 382.086 541.884 387.807 547.9C388.722 548.522 388.722 548.522 389.656 549.156C390.704 549.874 390.704 549.874 391.773 550.605C395.623 553.017 399.53 555.293 403.5 557.5C405.372 558.555 407.243 559.611 409.113 560.668C410.081 561.214 411.048 561.759 412.045 562.322C416.951 565.108 421.819 567.961 426.687 570.812C435.148 575.762 443.629 580.674 452.125 585.562C460.218 590.221 468.282 594.923 476.312 599.688C478.976 601.261 481.64 602.834 484.305 604.406C486.153 605.499 487.999 606.596 489.844 607.695C492.66 609.371 495.485 611.031 498.312 612.688C499.154 613.193 499.995 613.699 500.862 614.219C505.98 617.194 510.979 619.774 517 620C519.793 619.161 521.611 618.419 524.062 617C524.73 616.64 525.398 616.281 526.086 615.91C528.412 614.641 530.706 613.326 533 612C533.876 611.498 534.752 610.997 535.655 610.48C540.648 607.613 545.619 604.709 550.578 601.781C557.066 597.951 563.593 594.191 570.125 590.438C579.05 585.3 587.94 580.109 596.795 574.852C602.633 571.389 608.494 567.968 614.368 564.566C625.891 557.889 625.891 557.889 637.25 550.938C638.286 550.287 639.323 549.636 640.391 548.965C644.125 546.152 646.516 543.451 648 539C648.102 537.039 648.144 535.076 648.154 533.112C648.167 531.268 648.167 531.268 648.18 529.387C648.184 528.022 648.189 526.657 648.193 525.292C648.201 523.857 648.209 522.421 648.218 520.985C648.244 516.267 648.259 511.55 648.273 506.832C648.279 505.207 648.284 503.581 648.289 501.956C648.311 495.194 648.33 488.431 648.341 481.669C648.357 471.985 648.39 462.301 648.447 452.617C648.486 445.804 648.506 438.992 648.511 432.179C648.515 428.111 648.527 424.045 648.559 419.978C648.589 416.149 648.595 412.32 648.584 408.491C648.583 407.09 648.592 405.689 648.609 404.287C648.704 396.325 648.538 390.106 643 384C640.813 382.071 640.813 382.071 638.387 380.879C637.078 380.162 637.078 380.162 635.744 379.43C634.838 378.958 633.933 378.486 633 378C631.194 377.009 629.388 376.018 627.582 375.027C625.66 373.996 623.736 372.966 621.812 371.938C613.762 367.606 605.759 363.207 597.812 358.688C589.16 353.769 580.469 348.925 571.75 344.125C570.529 343.452 569.307 342.78 568.086 342.107C566.247 341.094 564.407 340.08 562.567 339.067C556.356 335.647 550.148 332.222 543.946 328.786C542.241 327.842 540.535 326.901 538.829 325.959C533.66 323.094 528.562 320.188 523.614 316.952C514.419 311.53 505.691 316.127 497.562 321.062Z" fill="#8B0000"/>
<g filter="url(#filter1_f_2_2118)">
<path d="M520 295C525.62 297.142 530.76 300.068 536 303C538.074 304.139 540.148 305.277 542.223 306.414C553.967 312.878 565.637 319.472 577.297 326.087C583.511 329.608 589.748 333.082 595.998 336.536C608.874 343.654 621.63 350.951 634.305 358.42C636.871 359.924 639.446 361.409 642.027 362.887C643.185 363.554 643.185 363.554 644.367 364.235C645.762 365.039 647.161 365.838 648.563 366.63C656.55 371.259 662.395 375.828 665 385C665.57 390.222 665.548 395.414 665.517 400.658C665.523 402.231 665.53 403.804 665.539 405.377C665.557 409.627 665.55 413.877 665.537 418.127C665.527 422.587 665.536 427.047 665.543 431.507C665.55 438.995 665.54 446.483 665.521 453.971C665.5 462.613 665.507 471.254 665.529 479.896C665.547 487.332 665.549 494.769 665.539 502.205C665.533 506.639 665.532 511.073 665.545 515.507C665.557 519.677 665.549 523.846 665.525 528.016C665.52 529.541 665.522 531.066 665.531 532.591C665.583 542.566 665.166 551 657.875 558.438C653.247 562.147 648.077 564.876 642.876 567.687C635.808 571.508 628.899 575.569 622 579.688C613.04 585.029 604.047 590.306 595 595.5C584.999 601.244 575.065 607.094 565.154 612.991C554.006 619.613 542.775 626.088 531.526 632.536C529.772 633.553 528.03 634.592 526.299 635.647C521.004 638.762 514.967 638.952 509 638C503.392 635.815 498.218 632.984 493 630C492.369 629.641 491.739 629.283 491.089 628.914C486.914 626.522 482.784 624.056 478.657 621.583C473.823 618.703 468.963 615.867 464.107 613.025C461.601 611.558 459.097 610.089 456.592 608.621C451.548 605.664 446.503 602.709 441.457 599.755C420.815 587.673 420.815 587.673 410.773 581.727C410.185 581.378 409.597 581.03 408.992 580.671C406.113 578.966 403.238 577.257 400.364 575.545C395.529 572.666 390.691 569.807 385.781 567.059C376.418 561.798 368.513 557.185 364.653 546.644C363.209 540.8 363.557 534.674 363.564 528.687C363.555 527.138 363.545 525.59 363.534 524.042C363.507 519.854 363.5 515.666 363.498 511.477C363.496 508.855 363.49 506.233 363.482 503.611C363.454 494.449 363.442 485.286 363.444 476.124C363.446 467.607 363.414 459.092 363.367 450.576C363.327 443.244 363.311 435.912 363.313 428.58C363.314 424.21 363.306 419.84 363.274 415.47C363.245 411.356 363.245 407.243 363.266 403.129C363.269 401.628 363.263 400.126 363.244 398.625C363.135 389.012 364.264 381.029 370 373C373.122 370.179 376.335 368.057 380 366C380.823 365.523 381.646 365.045 382.494 364.554C385.037 363.117 387.605 361.74 390.187 360.375C392.136 359.328 394.084 358.28 396.031 357.23C397.021 356.697 398.011 356.164 399.031 355.615C403.783 353.03 408.485 350.361 413.187 347.687C424.932 341.021 436.736 334.463 448.547 327.916C451.991 326.005 455.431 324.089 458.871 322.172C469.989 315.977 481.123 309.815 492.312 303.75C493.798 302.944 493.798 302.944 495.313 302.123C497.871 300.74 500.434 299.368 503 298C504.11 297.401 505.22 296.801 506.363 296.184C511.051 294.079 514.973 294.09 520 295ZM497.562 321.062C495.346 322.357 493.128 323.649 490.91 324.941C489.76 325.62 488.611 326.298 487.461 326.977C481.87 330.263 476.179 333.369 470.5 336.5C468.234 337.757 465.968 339.015 463.703 340.273C462.59 340.892 461.477 341.51 460.33 342.147C445.059 350.643 429.817 359.192 414.621 367.82C410.771 370.005 406.908 372.162 403.035 374.305C401.127 375.37 399.22 376.435 397.312 377.5C396.433 377.98 395.553 378.461 394.647 378.956C388.283 382.53 384.394 385.914 382 393C381.696 395.91 381.696 395.91 381.732 399.052C381.724 400.268 381.715 401.483 381.707 402.735C381.707 404.074 381.708 405.413 381.709 406.751C381.703 408.168 381.697 409.584 381.689 411C381.671 414.841 381.667 418.682 381.665 422.523C381.664 424.925 381.66 427.327 381.654 429.729C381.636 438.116 381.628 446.502 381.629 454.888C381.63 462.695 381.609 470.501 381.578 478.308C381.552 485.019 381.541 491.73 381.542 498.441C381.543 502.445 381.537 506.449 381.516 510.454C381.496 514.222 381.496 517.99 381.511 521.758C381.514 523.792 381.497 525.825 381.48 527.858C381.535 535.827 382.086 541.884 387.807 547.9C388.722 548.522 388.722 548.522 389.656 549.156C390.704 549.874 390.704 549.874 391.773 550.605C395.623 553.017 399.53 555.293 403.5 557.5C405.372 558.555 407.243 559.611 409.113 560.668C410.081 561.214 411.048 561.759 412.045 562.322C416.951 565.108 421.819 567.961 426.687 570.812C435.148 575.762 443.629 580.674 452.125 585.562C460.218 590.221 468.282 594.923 476.312 599.688C478.976 601.261 481.64 602.834 484.305 604.406C486.153 605.499 487.999 606.596 489.844 607.695C492.66 609.371 495.485 611.031 498.312 612.688C499.154 613.193 499.995 613.699 500.862 614.219C505.98 617.194 510.979 619.774 517 620C519.793 619.161 521.611 618.419 524.062 617C524.73 616.64 525.398 616.281 526.086 615.91C528.412 614.641 530.706 613.326 533 612C533.876 611.498 534.752 610.997 535.655 610.48C540.648 607.613 545.619 604.709 550.578 601.781C557.066 597.951 563.593 594.191 570.125 590.438C579.05 585.3 587.94 580.109 596.795 574.852C602.633 571.389 608.494 567.968 614.368 564.566C625.891 557.889 625.891 557.889 637.25 550.938C638.286 550.287 639.323 549.636 640.391 548.965C644.125 546.152 646.516 543.451 648 539C648.102 537.039 648.144 535.076 648.154 533.112C648.167 531.268 648.167 531.268 648.18 529.387C648.184 528.022 648.189 526.657 648.193 525.292C648.201 523.857 648.209 522.421 648.218 520.985C648.244 516.267 648.259 511.55 648.273 506.832C648.279 505.207 648.284 503.581 648.289 501.956C648.311 495.194 648.33 488.431 648.341 481.669C648.357 471.985 648.39 462.301 648.447 452.617C648.486 445.804 648.506 438.992 648.511 432.179C648.515 428.111 648.527 424.045 648.559 419.978C648.589 416.149 648.595 412.32 648.584 408.491C648.583 407.09 648.592 405.689 648.609 404.287C648.704 396.325 648.538 390.106 643 384C640.813 382.071 640.813 382.071 638.387 380.879C637.078 380.162 637.078 380.162 635.744 379.43C634.838 378.958 633.933 378.486 633 378C631.194 377.009 629.388 376.018 627.582 375.027C625.66 373.996 623.736 372.966 621.812 371.938C613.762 367.606 605.759 363.207 597.812 358.688C589.16 353.769 580.469 348.925 571.75 344.125C570.529 343.452 569.307 342.78 568.086 342.107C566.247 341.094 564.407 340.08 562.567 339.067C556.356 335.647 550.148 332.222 543.946 328.786C542.241 327.842 540.535 326.901 538.829 325.959C533.66 323.094 528.562 320.188 523.614 316.952C514.419 311.53 505.691 316.127 497.562 321.062Z" fill="#8B0000"/>
</g>
<path d="M639 399C639.117 416.907 639.205 434.813 639.259 452.72C639.285 461.034 639.32 469.349 639.377 477.663C639.427 484.91 639.459 492.156 639.471 499.403C639.477 503.24 639.492 507.077 639.529 510.914C639.563 514.527 639.573 518.138 639.566 521.751C639.568 523.708 639.595 525.664 639.622 527.62C639.566 537.184 639.566 537.184 636.616 540.22C635.753 540.808 634.889 541.395 634 542C633.202 542.565 632.404 543.129 631.582 543.711C630.211 544.535 630.211 544.535 628.813 545.375C628.273 545.7 627.733 546.026 627.177 546.361C618.265 551.69 609.235 556.825 600.231 561.994C595.138 564.919 590.051 567.856 584.965 570.794C575.115 576.484 565.249 582.146 555.365 587.778C549.801 590.955 544.267 594.18 538.75 597.438C537.378 598.245 536.005 599.052 534.633 599.859C532.434 601.152 530.242 602.454 528.055 603.766C527.253 604.235 526.451 604.704 525.625 605.188C524.978 605.573 524.331 605.958 523.664 606.355C522 607 522 607 519 606C518.907 588.519 518.836 571.038 518.793 553.557C518.772 545.44 518.744 537.323 518.698 529.206C518.658 522.13 518.633 515.054 518.624 507.978C518.619 504.232 518.606 500.487 518.577 496.742C518.545 492.557 518.544 488.372 518.546 484.187C518.532 482.95 518.517 481.713 518.502 480.438C518.535 473.741 518.888 469.394 523 464C525.688 461.91 525.688 461.91 529 460.062C529.633 459.702 530.266 459.341 530.919 458.969C532.402 458.126 533.889 457.291 535.38 456.462C538.367 454.795 541.334 453.097 544.301 451.395C549.086 448.65 553.875 445.913 558.668 443.184C568.717 437.458 578.729 431.668 588.743 425.881C592.097 423.944 595.452 422.011 598.809 420.078C599.931 419.432 601.052 418.786 602.208 418.12C604.417 416.848 606.626 415.576 608.835 414.306C613.671 411.521 618.492 408.719 623.27 405.836C624.451 405.126 624.451 405.126 625.656 404.402C627.085 403.539 628.509 402.67 629.928 401.792C633.333 399.739 634.91 399 639 399Z" fill="#8B0000"/>
<path d="M523.33 328.488C527.333 330.446 531.226 332.595 535.125 334.75C536.561 335.53 537.997 336.308 539.434 337.085C548.554 342.035 557.608 347.106 566.618 352.255C573.684 356.288 580.826 360.163 588 364C596.648 368.632 605.259 373.32 613.812 378.125C614.767 378.657 615.722 379.19 616.705 379.738C621.091 382.216 625.192 384.663 629 388C628.774 389.824 628.774 389.824 628 392C626.108 393.457 626.108 393.457 623.609 394.813C622.683 395.324 621.757 395.836 620.803 396.363C619.796 396.903 618.788 397.443 617.75 398C615.626 399.169 613.502 400.338 611.379 401.508C610.304 402.095 609.229 402.682 608.122 403.286C603.612 405.762 599.148 408.313 594.688 410.875C593.84 411.36 592.992 411.845 592.119 412.344C581.86 418.215 571.627 424.13 561.392 430.042C557.925 432.043 554.457 434.043 550.988 436.043C549.827 436.712 548.666 437.382 547.505 438.052C545.329 439.306 543.154 440.56 540.978 441.814C539.977 442.391 538.976 442.968 537.945 443.563C536.474 444.404 536.474 444.404 534.974 445.262C532.926 446.459 530.9 447.693 528.894 448.957C517.809 455.84 517.809 455.84 511 455C508.087 454.093 505.614 452.745 503 451.188C502.269 450.776 501.537 450.364 500.783 449.94C498.508 448.651 496.253 447.329 494 446C492.655 445.221 491.31 444.442 489.965 443.664C487.194 442.052 484.434 440.422 481.68 438.781C476.326 435.593 470.945 432.451 465.562 429.313C464.55 428.722 463.537 428.131 462.493 427.522C455.048 423.184 447.589 418.869 440.125 414.563C439.064 413.948 438.002 413.334 436.909 412.701C431.781 409.737 426.644 406.792 421.474 403.901C419.043 402.54 416.618 401.17 414.193 399.799C412.47 398.831 410.74 397.876 409.01 396.922C407.974 396.336 406.938 395.749 405.871 395.145C404.953 394.633 404.034 394.121 403.088 393.593C401 392 401 392 400.196 389.803C400.131 389.208 400.066 388.613 400 388C407.494 383.418 415.121 379.114 422.812 374.875C431.035 370.331 439.233 365.75 447.375 361.063C456.865 355.609 466.423 350.281 476.026 345.03C477.258 344.356 478.49 343.682 479.723 343.008C480.634 342.509 480.634 342.509 481.565 342.001C485.697 339.735 489.788 337.408 493.871 335.055C495.488 334.138 495.488 334.138 497.137 333.203C499.152 332.06 501.157 330.901 503.15 329.721C510.83 325.413 515.261 324.882 523.33 328.488Z" fill="#8B0000"/>
<path d="M519 315C525.717 317.818 532.025 321.656 538.313 325.312C546.865 330.242 555.477 335.055 564.125 339.812C565.046 340.319 565.046 340.319 565.985 340.836C569.731 342.897 569.731 342.897 573.477 344.957C580.93 349.058 588.363 353.196 595.795 357.335C601.793 360.672 607.8 363.99 613.82 367.285C615.785 368.362 617.75 369.44 619.715 370.517C620.967 371.202 622.22 371.886 623.474 372.568C629.07 375.614 634.661 378.682 640.086 382.027C640.754 382.436 641.422 382.844 642.111 383.265C645.848 386.697 647.746 389.96 648.37 394.97C648.514 398.714 648.53 402.448 648.502 406.194C648.506 407.633 648.511 409.073 648.518 410.512C648.532 414.407 648.521 418.301 648.504 422.196C648.491 426.278 648.497 430.361 648.501 434.443C648.503 441.297 648.49 448.15 648.467 455.004C648.44 462.921 648.438 470.837 648.45 478.754C648.461 486.38 648.455 494.006 648.441 501.633C648.435 504.874 648.435 508.115 648.44 511.356C648.444 515.173 648.434 518.991 648.413 522.808C648.407 524.207 648.407 525.606 648.412 527.005C648.418 528.918 648.403 530.832 648.388 532.745C648.384 534.349 648.384 534.349 648.38 535.986C647.822 540.411 646.232 543.77 643.075 546.922C637.727 550.889 632.266 554.348 626.438 557.562C624.571 558.611 622.705 559.66 620.84 560.711C619.878 561.251 618.916 561.791 617.925 562.347C613.09 565.08 608.295 567.883 603.5 570.688C602.013 571.556 602.013 571.556 600.497 572.442C597.33 574.293 594.165 576.146 591 578C589.306 578.992 589.306 578.992 587.577 580.005C584.597 581.75 581.617 583.497 578.638 585.243C576.812 586.313 574.986 587.382 573.16 588.452C566.855 592.145 560.558 595.851 554.274 599.578C547.209 603.765 540.118 607.904 533 612C531.678 612.766 531.678 612.766 530.329 613.548C528.152 614.794 525.959 616 523.75 617.188C522.631 617.8 521.512 618.412 520.36 619.043C514.486 620.716 509.455 618.884 504.133 616.18C502.79 615.424 501.454 614.655 500.125 613.875C498.994 613.23 498.994 613.23 497.84 612.571C489.68 607.886 481.603 603.054 473.518 598.24C462.498 591.68 451.394 585.269 440.274 578.881C431.476 573.826 422.686 568.757 413.903 563.678C412.051 562.607 410.198 561.538 408.343 560.471C384.857 546.944 384.857 546.944 382 538C381.428 533.3 381.453 528.638 381.483 523.908C381.477 522.491 381.47 521.075 381.461 519.658C381.443 515.829 381.45 512.001 381.463 508.173C381.473 504.155 381.464 500.138 381.457 496.12C381.45 489.375 381.46 482.63 381.479 475.885C381.5 468.101 381.493 460.317 381.471 452.532C381.453 445.834 381.451 439.135 381.461 432.437C381.467 428.443 381.468 424.449 381.455 420.455C381.443 416.699 381.451 412.943 381.475 409.187C381.482 407.161 381.47 405.134 381.458 403.108C381.524 395.934 382.079 391.077 386 385C387.911 383.157 387.911 383.157 389.953 381.945C390.743 381.467 391.532 380.989 392.346 380.497C393.66 379.756 393.66 379.756 395 379C396.445 378.17 396.445 378.17 397.92 377.323C401.182 375.479 404.463 373.673 407.75 371.875C410.173 370.541 412.595 369.204 415.016 367.867C415.616 367.536 416.216 367.205 416.834 366.864C422.087 363.962 427.299 360.993 432.5 358C444.924 350.863 457.465 343.939 470 337C474.235 334.655 478.469 332.31 482.702 329.962C484.373 329.036 486.045 328.111 487.717 327.186C494 323.703 500.194 320.118 506.316 316.358C510.657 314.162 514.288 313.906 519 315ZM504.66 329.043C504.066 329.363 503.471 329.682 502.858 330.012C500.92 331.058 498.991 332.122 497.063 333.187C495.707 333.925 494.351 334.661 492.995 335.396C483.192 340.728 473.462 346.193 463.77 351.723C457.375 355.367 450.938 358.934 444.5 362.5C435.756 367.349 427.022 372.215 418.313 377.125C417.387 377.645 416.462 378.165 415.508 378.701C410.25 381.672 405.097 384.76 400 388C400.126 389.905 400.126 389.905 401 392C403.177 393.735 403.177 393.735 405.977 395.215C407.028 395.812 408.08 396.409 409.163 397.024C410.306 397.655 411.448 398.287 412.625 398.937C413.811 399.605 414.996 400.275 416.181 400.945C419.204 402.652 422.236 404.345 425.27 406.035C429.773 408.547 434.26 411.089 438.75 413.625C439.69 414.154 440.63 414.683 441.599 415.229C448.958 419.381 456.237 423.657 463.501 427.972C470.828 432.319 478.186 436.611 485.563 440.875C486.608 441.481 487.654 442.088 488.732 442.712C490.776 443.892 492.825 445.062 494.88 446.222C497.055 447.461 499.211 448.736 501.351 450.036C509.009 454.735 509.009 454.735 517.644 454.912C523.102 452.8 528.061 449.816 533.063 446.812C534.305 446.083 535.548 445.354 536.792 444.627C539.942 442.783 543.082 440.922 546.219 439.056C550.86 436.304 555.527 433.594 560.188 430.875C561.158 430.306 562.129 429.738 563.129 429.152C570.206 425.014 577.339 420.987 584.5 417C593.07 412.228 601.59 407.38 610.063 402.437C611.044 401.866 612.025 401.294 613.035 400.705C618.414 397.556 623.732 394.332 629 391C628.931 389.114 628.931 389.114 628 387C625.479 385.004 625.479 385.004 622.281 383.219C621.699 382.874 621.116 382.53 620.516 382.175C618.686 381.1 616.846 380.047 615 379C613.904 378.377 612.809 377.755 611.68 377.113C608.298 375.221 604.902 373.356 601.5 371.5C600.24 370.809 598.98 370.118 597.72 369.426C595.767 368.355 593.814 367.283 591.86 366.213C587.428 363.786 583.003 361.347 578.582 358.898C563.682 350.649 548.758 342.447 533.721 334.448C532.019 333.542 530.318 332.633 528.619 331.72C526.669 330.675 524.712 329.646 522.75 328.625C521.755 328.102 520.76 327.578 519.735 327.039C513.909 324.825 509.975 326.149 504.66 329.043ZM392 399C390.294 400.706 390.863 402.91 390.853 405.243C390.846 406.38 390.839 407.517 390.831 408.688C390.829 409.947 390.826 411.206 390.823 412.503C390.817 413.82 390.81 415.137 390.803 416.494C390.786 420.118 390.775 423.742 390.767 427.366C390.762 429.63 390.756 431.894 390.75 434.158C390.73 441.24 390.716 448.322 390.708 455.404C390.698 463.581 390.672 471.758 390.631 479.935C390.601 486.252 390.586 492.57 390.583 498.888C390.581 502.662 390.572 506.436 390.547 510.21C390.523 513.763 390.519 517.316 390.529 520.869C390.53 522.791 390.511 524.712 390.491 526.634C390.53 533.022 390.572 537.205 395 542C397.209 543.787 397.209 543.787 399.727 545.121C400.663 545.656 401.598 546.191 402.563 546.742C404.079 547.581 404.079 547.581 405.625 548.438C407.215 549.34 407.215 549.34 408.836 550.262C411.082 551.538 413.331 552.808 415.583 554.074C421.08 557.173 426.538 560.34 432 563.5C434.188 564.761 436.375 566.021 438.563 567.281C445.702 571.4 452.819 575.556 459.935 579.715C468.579 584.763 477.247 589.769 485.922 594.764C486.933 595.346 487.943 595.928 488.985 596.527C489.969 597.093 490.953 597.659 491.967 598.242C494.105 599.481 496.236 600.734 498.361 601.997C499.985 602.959 499.985 602.959 501.641 603.941C502.621 604.527 503.601 605.113 504.61 605.717C506.842 607.158 506.842 607.158 509 607C509.07 589.502 509.123 572.004 509.156 554.505C509.171 546.381 509.192 538.256 509.226 530.131C509.256 523.049 509.276 515.966 509.282 508.884C509.286 505.135 509.295 501.385 509.317 497.636C509.342 493.448 509.342 489.261 509.341 485.074C509.351 483.833 509.362 482.592 509.373 481.314C509.346 473.82 508.746 469.132 503.669 463.341C500.988 460.99 498.41 459.277 495.301 457.539C494.188 456.911 493.074 456.282 491.927 455.635C490.722 454.965 489.518 454.295 488.313 453.625C487.055 452.918 485.798 452.209 484.542 451.5C481.958 450.042 479.372 448.587 476.785 447.134C471.122 443.948 465.499 440.692 459.875 437.437C457.727 436.196 455.578 434.956 453.43 433.715C452.37 433.102 451.31 432.49 450.218 431.859C443.747 428.121 437.274 424.387 430.8 420.656C425.708 417.72 420.618 414.78 415.535 411.828C413.126 410.429 410.715 409.032 408.305 407.635C406.597 406.645 404.891 405.652 403.186 404.658C402.156 404.062 401.127 403.466 400.067 402.852C399.158 402.324 398.25 401.796 397.315 401.252C394.953 399.888 394.953 399.888 392 399ZM629.836 401.754C628.297 402.653 628.297 402.653 626.727 403.57C625.621 404.228 624.515 404.885 623.375 405.562C622.209 406.247 621.042 406.931 619.875 407.613C617.449 409.033 615.026 410.457 612.605 411.883C607.092 415.127 601.544 418.31 596 421.5C593.831 422.751 591.661 424.002 589.492 425.254C588.42 425.873 587.347 426.492 586.241 427.129C583.017 428.99 579.794 430.852 576.57 432.715C574.422 433.956 572.274 435.197 570.125 436.437C569.072 437.046 568.018 437.655 566.933 438.283C561.096 441.652 555.249 445 549.387 448.324C548.11 449.05 546.833 449.775 545.556 450.5C543.123 451.883 540.687 453.26 538.249 454.635C526.395 460.643 526.395 460.643 519 471C518.572 475.359 518.622 479.697 518.66 484.074C518.659 485.391 518.659 486.709 518.658 488.066C518.657 491.667 518.675 495.268 518.696 498.869C518.715 502.636 518.716 506.404 518.72 510.172C518.729 517.301 518.754 524.43 518.784 531.559C518.818 539.677 518.834 547.796 518.849 555.914C518.88 572.61 518.933 589.305 519 606C521.868 607.32 521.868 607.32 524.071 606.142C524.866 605.682 525.661 605.221 526.481 604.746C527.385 604.229 528.289 603.711 529.221 603.178C530.2 602.603 531.179 602.029 532.188 601.438C533.209 600.849 534.231 600.261 535.283 599.654C538.529 597.781 541.765 595.892 545 594C547.017 592.824 549.034 591.648 551.051 590.473C554.04 588.729 557.028 586.983 560.015 585.234C566.808 581.259 573.639 577.358 580.5 573.5C591.48 567.324 602.367 560.996 613.232 554.621C615.855 553.085 618.483 551.558 621.113 550.035C622.638 549.148 624.163 548.262 625.688 547.375C626.364 546.985 627.041 546.596 627.738 546.195C634.334 542.599 634.334 542.599 639 537C639.094 535.175 639.122 533.347 639.12 531.52C639.122 530.357 639.123 529.193 639.125 527.993C639.121 526.71 639.117 525.427 639.114 524.105C639.113 522.745 639.114 521.385 639.114 520.025C639.114 516.327 639.108 512.629 639.102 508.931C639.095 505.069 639.095 501.206 639.094 497.344C639.09 490.027 639.082 482.71 639.072 475.393C639.061 467.064 639.055 458.736 639.05 450.407C639.04 433.271 639.022 416.136 639 399C634.668 399 633.463 399.613 629.836 401.754Z" fill="#330000"/>
<path d="M529 376C531.934 377.888 534.41 379.82 536 383C536.505 388.046 536.651 390.015 533.813 394.313C526.725 401.086 520.227 401.465 510.711 401.277C504.427 400.808 500.387 398.685 496 394.25C493.539 390.25 492.912 387.57 494 383C497.138 377.373 501.127 375.624 507.168 373.691C514.791 371.83 521.812 372.905 529 376Z" fill="#330000"/>
<path d="M447 484C454.397 487.623 458.46 494.089 461.375 501.562C463.269 507.3 463.998 511.595 461.625 517.312C460 520 460 520 458 522C453.239 522.777 450.359 521.931 446.375 519.437C439.423 514.377 435.917 508.35 434 500C433.42 494.398 434.418 490.877 437 486C440.755 483.497 442.547 483.547 447 484Z" fill="#330000"/>
<path d="M414 429C421.791 433.058 426.353 439.394 429.313 447.508C430.803 452.911 430.728 457.974 428 463C426.813 464.813 426.813 464.813 425 466C420.119 466.657 416.796 465.935 412.629 463.25C406.245 458.351 402.763 451.237 401.613 443.344C401.363 437.61 402.22 434.336 406 430C408.866 428.567 410.813 428.694 414 429Z" fill="#330000"/>
<path d="M478.879 464.348C484.272 466.006 487.844 470.594 491.312 474.812C495.084 481.936 497.272 489.039 495 497C493.375 500.062 493.375 500.062 491 502C486.236 502.809 482.792 502.003 478.699 499.391C472.459 494.284 468.666 487.19 467.648 479.262C467.419 474.806 467.376 471.063 470 467.312C473.061 464.953 474.975 464.045 478.879 464.348Z" fill="#330000"/>
<path d="M407 506C413.282 506.106 417.572 507.447 422 512C427.64 519.663 430.913 527.416 430 537C428.437 540.438 428.437 540.438 426 543C421.655 544.476 419.67 544.282 415.437 542.5C407.837 537.473 404.225 530.726 402 522C401.179 516.628 402.126 512.642 405 508C405.66 507.34 406.32 506.68 407 506Z" fill="#330000"/>
<path d="M558 544C561.288 547.288 562.191 550.887 562.438 555.438C562.351 562.837 559.074 569.508 554.219 575.023C551.167 577.767 548.048 580.066 544 581C540.793 580.808 538.766 580.581 536.188 578.625C533.509 574.959 533.723 571.37 534 567C536.111 557.19 540.456 550.377 548.375 544.125C552.005 542.569 554.233 542.954 558 544Z" fill="#330000"/>
<path d="M479 543C486.15 546.724 491.279 552.978 494.301 560.398C495.697 565.592 495.803 570.696 495 576C493 579.375 493 579.375 490 581C484.442 581.463 481.621 580.102 477.312 576.625C470.861 570.352 467.76 563.57 467.562 554.562C467.647 550.849 467.95 548.141 470 545C473.534 542.644 474.836 542.51 479 543Z" fill="#330000"/>
<path d="M623 429C626.254 431.949 626.927 435.182 627.313 439.5C627.156 448.032 623.574 455.343 617.723 461.406C614.3 464.573 612.092 465.847 607.438 466.5C604 466 604 466 601.625 464.062C598.595 458.351 598.455 453.16 600.063 446.937C601.802 441.845 604.408 437.971 608 434C608.696 433.205 608.696 433.205 609.407 432.395C613.41 428.424 617.667 427.847 623 429Z" fill="#330000"/>
<path d="M621 506C624.102 508.55 625.726 510.177 627 514C627.725 522.886 625.124 530.451 619.555 537.309C616.22 540.937 613.115 543.816 608.125 544.25C604.661 543.973 603.427 543.427 601 541C598.457 533.371 599.507 525.399 602.801 518.188C606.542 511.363 612.532 504.379 621 506Z" fill="#330000"/>
<path d="M558 465C560.674 466.812 560.959 467.878 562 471C562.936 479.369 561.231 486.392 556.387 493.301C553.106 497.28 550.032 500.427 545 502C538.882 501.896 538.882 501.896 536.32 499.293C533.418 494.253 534.337 487.752 535.656 482.273C538.006 475.73 541.919 469.491 547.965 465.801C551.468 464.422 554.246 464.702 558 465Z" fill="#330000"/>
<path d="M533 458C533.33 458.66 533.66 459.32 534 460C533.301 460.387 532.603 460.773 531.883 461.172C530.518 461.953 530.518 461.953 529.125 462.75C528.22 463.26 527.315 463.771 526.383 464.297C523.775 466.161 523.137 467.064 522 470C521.691 472.663 521.691 472.663 521.722 475.606C521.71 476.748 521.699 477.889 521.688 479.065C521.686 480.313 521.684 481.561 521.681 482.847C521.671 484.164 521.661 485.481 521.651 486.839C521.624 490.448 521.608 494.057 521.595 497.666C521.58 501.439 521.553 505.212 521.527 508.985C521.481 516.128 521.444 523.271 521.411 530.415C521.372 538.548 521.323 546.681 521.273 554.814C521.169 571.542 521.08 588.271 521 605C521.949 604.484 522.898 603.969 523.875 603.438C524.906 602.963 525.938 602.489 527 602C527.66 602.33 528.32 602.66 529 603C523.824 606.223 523.824 606.223 522 607C521.01 606.67 520.02 606.34 519 606C518.907 588.519 518.836 571.038 518.793 553.557C518.772 545.44 518.744 537.323 518.698 529.206C518.658 522.13 518.633 515.054 518.624 507.978C518.619 504.232 518.606 500.487 518.577 496.742C518.545 492.557 518.544 488.372 518.546 484.187C518.532 482.95 518.517 481.713 518.502 480.438C518.535 473.741 518.891 469.395 523 464C525.578 462.004 525.578 462.004 528.25 460.562C529.142 460.069 530.034 459.575 530.953 459.066C531.629 458.714 532.304 458.363 533 458Z" fill="#8B0000" fill-opacity="0.35"/>
<path d="M507 471C507.66 471.33 508.32 471.66 509 472C509 516.55 509 561.1 509 607C507.02 606.34 505.04 605.68 503 605C502.67 604.34 502.34 603.68 502 603C503.32 603.33 504.64 603.66 506 604C506.33 560.11 506.66 516.22 507 471Z" fill="#8B0000" fill-opacity="0.06"/>
<path d="M669 656C669.625 657.812 669.625 657.812 670 660C669.01 661.485 669.01 661.485 668 663C668.554 662.7 669.109 662.399 669.68 662.09C670.404 661.71 671.129 661.329 671.875 660.938C672.594 660.555 673.314 660.172 674.055 659.777C674.697 659.521 675.339 659.264 676 659C676.66 659.33 677.32 659.66 678 660C668.133 665.619 658.242 671.102 647.875 675.75C647.112 676.097 646.349 676.444 645.563 676.801C643.736 677.6 641.871 678.31 640 679C639.34 678.67 638.68 678.34 638 678C639.065 677.25 640.13 676.5 641.227 675.727C650.508 669.183 659.768 662.613 669 656Z" fill="#E0A95C"/>
<path d="M340 651C344.84 652.765 349.284 655.195 353.812 657.625C354.601 658.045 355.389 658.465 356.201 658.898C358.135 659.93 360.068 660.964 362 662C362 660.68 362 659.36 362 658C365.836 659.363 368.756 661.115 372 663.562C376.343 666.792 380.731 669.93 385.188 673C385.764 673.398 386.341 673.796 386.936 674.205C388.29 675.138 389.645 676.069 391 677C390.01 677.495 390.01 677.495 389 678C386.777 677.066 386.777 677.066 383.938 675.562C380.35 673.7 376.775 671.873 373.094 670.203C365.008 666.534 357.197 662.56 349.5 658.125C348.668 657.648 347.837 657.172 346.98 656.681C346.213 656.232 345.446 655.783 344.656 655.32C343.974 654.921 343.291 654.521 342.588 654.11C341 653 341 653 340 651Z" fill="#E6B361"/>
<path d="M788 637C788 640.998 786.642 641.812 783.938 644.688C780.339 648.558 776.836 652.479 773.41 656.504C772 658 772 658 770 659C770 658.01 770 657.02 770 656C768.35 656.33 766.7 656.66 765 657C772.106 649.665 779.862 643.157 788 637Z" fill="#330000" fill-opacity="0.9"/>
<path d="M622 656C622.66 656.33 623.32 656.66 624 657C621.03 659.97 618.06 662.94 615 666C615.99 667.485 615.99 667.485 617 669C611.39 672.96 605.78 676.92 600 681C599.34 680.67 598.68 680.34 598 680C601.99 675.2 606.106 670.908 610.867 666.875C614.767 663.446 618.368 659.708 622 656Z" fill="#330000" fill-opacity="0.9"/>
<path d="M619 831C619 834 619 834 617.688 835.605C617.131 836.128 616.574 836.65 616 837.188C615.443 837.717 614.886 838.247 614.312 838.793C613.879 839.191 613.446 839.59 613 840C614.156 839.225 614.156 839.225 615.336 838.434C616.339 837.775 617.342 837.116 618.375 836.438C619.872 835.446 619.872 835.446 621.398 834.434C622.257 833.961 623.115 833.487 624 833C624.66 833.33 625.32 833.66 626 834C619.63 838.744 613.203 843.238 606.41 847.359C603.961 849.026 602.021 850.843 600 853C599.34 852.67 598.68 852.34 598 852C604.93 845.07 611.86 838.14 619 831Z" fill="#330000" fill-opacity="0.8"/>
<path d="M647 871C647.66 871.33 648.32 871.66 649 872C640.484 879.849 631.937 887.627 623 895C623.33 895.66 623.66 896.32 624 897C622.35 897.33 620.7 897.66 619 898C619 898.66 619 899.32 619 900C618.01 899.67 617.02 899.34 616 899C617.349 894.952 619.457 894.287 623 892C624.76 890.472 626.489 888.908 628.188 887.312C632.915 882.941 637.767 878.844 642.785 874.812C645.028 873.039 645.028 873.039 647 871Z" fill="#251926"/>
<path d="M379 206C379.66 206.33 380.32 206.66 381 207C372 216 363 225 354 234C355.427 230.21 357.162 226.729 359.125 223.188C359.664 222.212 360.203 221.236 360.758 220.23C361.168 219.494 361.578 218.758 362 218C363 220 363 220 363 222C368.28 216.72 373.56 211.44 379 206Z" fill="#330000" fill-opacity="0.8"/>
<path d="M655 279C659.279 282.668 661.64 287.257 664.312 292.125C664.78 292.949 665.247 293.772 665.729 294.621C666.383 295.803 666.383 295.803 667.051 297.008C667.45 297.726 667.848 298.444 668.259 299.184C668.504 299.783 668.748 300.383 669 301C668.67 301.66 668.34 302.32 668 303C666.014 300.568 664.037 298.129 662.062 295.688C661.499 294.997 660.935 294.307 660.354 293.596C659.815 292.929 659.277 292.262 658.723 291.574C657.976 290.655 657.976 290.655 657.215 289.718C656 288 656 288 655 285C655.66 285 656.32 285 657 285C656.34 283.02 655.68 281.04 655 279Z" fill="#330000" fill-opacity="0.9"/>
<path d="M773 765C773.66 765.33 774.32 765.66 775 766C771.86 770.186 768.525 773.146 764.324 776.23C758.003 780.903 752.007 785.934 746 791C745.34 790.67 744.68 790.34 744 790C745.561 788.582 747.124 787.165 748.688 785.75C749.558 784.961 750.428 784.172 751.324 783.359C753.824 781.155 756.395 779.077 759 777C759.66 776.34 760.32 775.68 761 775C762.282 774.029 763.575 773.072 764.875 772.125C767.826 769.936 770.5 767.709 773 765Z" fill="#330000" fill-opacity="0.9"/>
<path d="M255 825C258.974 826.441 262.317 828.353 265.875 830.625C273.046 835.142 280.485 839.092 288 843C285 844 285 844 282.89 843.199C282.09 842.771 281.29 842.343 280.465 841.902C279.572 841.43 278.679 840.957 277.76 840.471C276.828 839.965 275.897 839.459 274.938 838.938C274.033 838.459 273.129 837.98 272.197 837.486C266.012 834.184 259.98 830.661 254 827C254.33 826.34 254.66 825.68 255 825Z" fill="#330000" fill-opacity="0.7"/>
<path d="M387 888C391.284 888.713 395.251 890.069 399.312 891.562C399.958 891.796 400.603 892.03 401.268 892.271C402.846 892.844 404.423 893.422 406 894C406 893.01 406 892.02 406 891C408.64 892.98 411.28 894.96 414 897C413.67 897.66 413.34 898.32 413 899C407.119 897.11 401.3 895.062 395.5 892.938C394.422 892.552 394.422 892.552 393.322 892.158C388.115 890.231 388.115 890.231 387 888Z" fill="#330000" fill-opacity="0.8"/>
<path d="M656 665C656.66 665.33 657.32 665.66 658 666C656.68 667.32 655.36 668.64 654 670C654.99 670.33 655.98 670.66 657 671C654.214 672.367 651.421 673.716 648.625 675.062C647.831 675.452 647.037 675.842 646.219 676.244C645.078 676.79 645.078 676.79 643.914 677.348C642.861 677.858 642.861 677.858 641.788 678.379C641.198 678.584 640.608 678.789 640 679C639.34 678.67 638.68 678.34 638 678C638.51 677.642 639.019 677.283 639.545 676.914C641.843 675.298 644.14 673.68 646.438 672.062C647.641 671.217 647.641 671.217 648.869 670.354C649.633 669.815 650.397 669.277 651.184 668.723C652.244 667.976 652.244 667.976 653.326 667.215C654.947 666.105 654.947 666.105 656 665Z" fill="#EAB865"/>
<path d="M346 315C347 318 347 318 346.062 320.188C345.712 320.786 345.361 321.384 345 322C345.99 321.67 346.98 321.34 348 321C346.699 324.522 345.163 327.515 343.062 330.625C342.558 331.38 342.054 332.136 341.535 332.914C340.144 334.805 338.709 336.398 337 338C339.089 329.884 342.353 322.529 346 315Z" fill="#330000" fill-opacity="0.8"/>
<path d="M786 674C786 677.598 785.409 678.039 783.062 680.625C782.433 681.319 781.804 682.012 781.156 682.727C777.516 686.564 773.778 690.299 770 694C769.34 693.67 768.68 693.34 768 693C769.873 690.957 771.749 688.915 773.625 686.875C774.408 686.02 774.408 686.02 775.207 685.148C778.716 681.336 782.314 677.641 786 674Z" fill="#330000" fill-opacity="0.9"/>
<path d="M788 637C788 641.156 785.718 642.841 783 645.688C782.523 646.199 782.046 646.71 781.555 647.236C780.376 648.497 779.189 649.749 778 651C777.67 650.34 777.34 649.68 777 649C776.34 648.67 775.68 648.34 775 648C776.602 646.539 778.207 645.082 779.812 643.625C780.706 642.813 781.599 642.001 782.52 641.164C785 639 785 639 788 637Z" fill="#330000" fill-opacity="0.8"/>
<path d="M235 633C240.192 636.803 245.156 640.762 250 645C249.01 645 248.02 645 247 645C247 645.33 247 645.66 247 646C247 646.99 247 647.98 247 649C235 635.631 235 635.631 235 633Z" fill="#330000" fill-opacity="0.8"/>
<path d="M733 589C734 592 734 592 733.074 594.27C732.617 595.109 732.159 595.948 731.688 596.812C730.16 599.692 728.946 602.18 728 605.312C726.72 608.753 724.707 610.578 722 613C721.34 612.67 720.68 612.34 720 612C720.436 611.345 720.871 610.69 721.32 610.016C725.745 603.235 729.518 596.308 733 589Z" fill="#EEB965"/>
<path d="M799 807C800.32 807.99 801.64 808.98 803 810C800.547 811.531 798.089 813.05 795.625 814.562C794.926 815 794.228 815.438 793.508 815.889C791.708 816.988 789.857 818.001 788 819C787.34 818.67 786.68 818.34 786 818C786.687 817.457 787.374 816.915 788.082 816.355C788.983 815.64 789.884 814.925 790.812 814.188C791.706 813.48 792.599 812.772 793.52 812.043C795.471 810.436 797.263 808.83 799 807Z" fill="#140D14"/>
<path d="M439 243C439.66 243.33 440.32 243.66 441 244C439.451 245.826 437.888 247.635 436.312 249.438C435.66 250.212 435.66 250.212 434.994 251.002C432.187 254.183 430.281 255.699 426 256C429.942 251.12 434.12 246.942 439 243Z" fill="#E5AD5E"/>
<path d="M336 582C338.429 584.429 340.556 586.819 342.688 589.5C343.31 590.273 343.933 591.047 344.574 591.844C346 594 346 594 346 597C344.35 595.35 342.7 593.7 341 592C340.01 593.485 340.01 593.485 339 595C338.01 590.71 337.02 586.42 336 582Z" fill="#330000" fill-opacity="0.8"/>
<path d="M449 157C449.99 157.33 450.98 157.66 452 158C447.71 162.29 443.42 166.58 439 171C438.34 170.67 437.68 170.34 437 170C438.436 168.395 439.874 166.791 441.312 165.188C442.113 164.294 442.914 163.401 443.738 162.48C445.452 160.601 447.179 158.774 449 157Z" fill="#330000" fill-opacity="0.9"/>
<path d="M635 883C635.66 883.33 636.32 883.66 637 884C634.03 886.97 634.03 886.97 631 890C631.66 890.66 632.32 891.32 633 892C631.546 892.697 630.087 893.382 628.625 894.062C627.813 894.445 627.001 894.828 626.164 895.223C625.45 895.479 624.736 895.736 624 896C623.34 895.67 622.68 895.34 622 895C626.29 891.04 630.58 887.08 635 883Z" fill="#330000" fill-opacity="0.8"/>
<path d="M423 672C427.184 675.509 431.196 679.081 435 683C431.11 681.612 428.034 679.785 424.688 677.375C423.804 676.743 422.921 676.112 422.012 675.461C421.348 674.979 420.684 674.497 420 674C420.99 673.34 421.98 672.68 423 672Z" fill="#330000" fill-opacity="0.8"/>
<path d="M364 661C365.438 661.79 366.876 662.582 368.312 663.375C369.113 663.816 369.914 664.257 370.738 664.711C372.535 665.735 374.279 666.853 376 668C375.67 668.99 375.34 669.98 375 671C373 669.667 371 668.333 369 667C367.776 666.282 366.547 665.574 365.312 664.875C364.219 664.256 363.126 663.638 362 663C362.66 662.34 363.32 661.68 364 661Z" fill="#CE8F4F"/>
<path d="M487 788C489.038 789.274 491.039 790.611 493 792C493 792.66 493 793.32 493 794C493.99 794.33 494.98 794.66 496 795C495.01 795.495 495.01 795.495 494 796C491.928 795.268 489.889 794.441 487.875 793.562C486.779 793.089 485.684 792.616 484.555 792.129C483.712 791.756 482.869 791.384 482 791C485 790 485 790 487 790C487 789.34 487 788.68 487 788Z" fill="#330000" fill-opacity="0.9"/>
<path d="M662.266 664.316C662.838 664.542 663.41 664.768 664 665C661.823 668.266 660.724 669.797 656.875 670.875C654 671 654 671 652 670C653.237 668.964 654.49 667.947 655.75 666.938C656.794 666.085 656.794 666.085 657.859 665.215C660 664 660 664 662.266 664.316Z" fill="#CF9150"/>
<path d="M773 765C773.66 765.33 774.32 765.66 775 766C771.069 771.241 767.263 774.853 761 777C764.606 772.411 768.474 768.678 773 765Z" fill="#150000"/>
<path d="M661 289C664.835 292.287 667.324 296.251 669 301C668.67 301.66 668.34 302.32 668 303C666.818 301.617 665.655 300.218 664.5 298.812C663.85 298.035 663.2 297.258 662.531 296.457C660.805 293.687 660.681 292.201 661 289Z" fill="#330000" fill-opacity="0.8"/>
<path d="M694 581C695 583 695 583 694.441 585.164C694.151 585.976 693.861 586.788 693.562 587.625C693.275 588.442 692.988 589.26 692.691 590.102C692.349 591.041 692.349 591.041 692 592C691.34 591.34 690.68 590.68 690 590C689.01 590.495 689.01 590.495 688 591C689.652 587.421 691.783 584.252 694 581Z" fill="#330000" fill-opacity="0.8"/>
<path d="M264 773C268.945 775.627 272.878 779.266 277 783C272.966 783 271.506 781.404 268.312 779C267.319 778.258 266.325 777.515 265.301 776.75C264.542 776.173 263.782 775.595 263 775C263.33 774.34 263.66 773.68 264 773Z" fill="#160E17"/>
<path d="M605.625 673.875C606.409 673.916 607.193 673.957 608 674C604.874 677.394 602.435 679.606 598 681C602.026 674.046 602.026 674.046 605.625 673.875Z" fill="#330000" fill-opacity="0.8"/>
<path d="M416 668C420.75 668.75 420.75 668.75 423 671C422.67 671.99 422.34 672.98 422 674C419.562 673.25 419.562 673.25 417 672C416.188 669.875 416.188 669.875 416 668Z" fill="#330000" fill-opacity="0.9"/>
<path d="M255 825C259.11 826.45 262.433 828.511 266 831C263 832 263 832 260.738 831.004C259.938 830.528 259.137 830.053 258.312 829.562C257.504 829.089 256.696 828.616 255.863 828.129C255.248 827.756 254.634 827.384 254 827C254.33 826.34 254.66 825.68 255 825Z" fill="#1D0000" fill-opacity="0.94"/>
<path d="M539 797C539.66 797.33 540.32 797.66 541 798C536.545 801.465 536.545 801.465 532 805C531.34 804.67 530.68 804.34 530 804C530.66 802.02 531.32 800.04 532 798C532.33 798.99 532.66 799.98 533 801C534.98 799.68 536.96 798.36 539 797Z" fill="#330000" fill-opacity="0.9"/>
<path d="M630 192C633.442 194.66 633.995 197.903 635 202C632.36 200.02 629.72 198.04 627 196C627.99 196 628.98 196 630 196C630 195.34 630 194.68 630 194C630 193.34 630 192.68 630 192Z" fill="#330000" fill-opacity="0.92"/>
<path d="M707 822C707.66 822.33 708.32 822.66 709 823C707.76 824.322 706.507 825.632 705.25 826.938C704.554 827.668 703.858 828.399 703.141 829.152C700.994 831.005 699.765 831.608 697 832C700.333 828.667 703.667 825.333 707 822Z" fill="#330000" fill-opacity="0.9"/>
<path d="M648 708C644.212 711.611 644.212 711.611 642 713C639.125 712.812 639.125 712.812 637 712C644.225 706.113 644.225 706.113 648 708Z" fill="#330000" fill-opacity="0.8"/>
<path d="M522 617C523.65 617 525.3 617 527 617C524.063 620.139 522.201 621.905 517.738 622.098C516.938 622.086 516.137 622.074 515.312 622.062C514.1 622.049 514.1 622.049 512.863 622.035C511.941 622.018 511.941 622.018 511 622C511 621.67 511 621.34 511 621C511.71 620.879 512.421 620.758 513.152 620.633C514.071 620.465 514.991 620.298 515.938 620.125C516.854 619.963 517.771 619.8 518.715 619.633C519.469 619.424 520.223 619.215 521 619C521.33 618.34 521.66 617.68 522 617Z" fill="#8B0000" fill-opacity="0.73"/>
<path d="M401 889C404.367 890.393 405.986 891.979 408 895C406.519 894.719 405.04 894.425 403.562 894.125C402.739 893.963 401.915 893.8 401.066 893.633C400.384 893.424 399.703 893.215 399 893C398.67 892.34 398.34 891.68 398 891C398.99 891 399.98 891 401 891C401 890.34 401 889.68 401 889Z" fill="#330000" fill-opacity="0.8"/>
<path d="M727 604C727.33 604.99 727.66 605.98 728 607C725.688 609.5 725.688 609.5 723 612C722.01 612 721.02 612 720 612C720.786 610.851 721.579 609.706 722.375 608.562C722.816 607.924 723.257 607.286 723.711 606.629C725 605 725 605 727 604Z" fill="#E3A95D"/>
<path d="M515.625 948.938C516.685 948.944 516.685 948.944 517.766 948.951C519.51 948.963 521.255 948.981 523 949C523 949.33 523 949.66 523 950C518.71 950 514.42 950 510 950C510 950.66 510 951.32 510 952C508.68 951.34 507.36 950.68 506 950C509.065 948.467 512.268 948.897 515.625 948.938Z" fill="#1C191D"/>
<path d="M374 883C375.65 883 377.3 883 379 883C379 883.66 379 884.32 379 885C381.31 885.66 383.62 886.32 386 887C383.533 887.883 382.361 888.131 379.859 887.223C379.163 886.84 378.467 886.457 377.75 886.062C377.044 885.682 376.337 885.302 375.609 884.91C375.078 884.61 374.547 884.309 374 884C374 883.67 374 883.34 374 883Z" fill="#330000" fill-opacity="0.9"/>
<path d="M768 653C768.66 653 769.32 653 770 653C770 653.66 770 654.32 770 655C770.99 655 771.98 655 773 655C772.34 656.32 771.68 657.64 771 659C770.67 658.01 770.34 657.02 770 656C768.35 656.33 766.7 656.66 765 657C766.375 655 766.375 655 768 653Z" fill="#330000" fill-opacity="0.9"/>
<path d="M468 471C468.99 471.99 469.98 472.98 471 474C470.739 477.48 469.966 479.051 468 482C468 478.37 468 474.74 468 471Z" fill="#4A0000" fill-opacity="0.5"/>
<path d="M681 598C681 602.39 678.872 603.769 676 607C675.34 606.67 674.68 606.34 674 606C676.31 603.36 678.62 600.72 681 598Z" fill="#330000" fill-opacity="0.9"/>
<path d="M548 811C548.66 811.33 549.32 811.66 550 812C546.535 814.97 546.535 814.97 543 818C543 817.01 543 816.02 543 815C545.5 812.812 545.5 812.812 548 811Z" fill="#330000" fill-opacity="0.9"/>
<path d="M653 736C653.33 736.66 653.66 737.32 654 738C651.03 740.475 651.03 740.475 648 743C647.34 742.34 646.68 741.68 646 741C648.31 739.35 650.62 737.7 653 736Z" fill="#330000" fill-opacity="0.9"/>
<path d="M527 463C527.66 463.33 528.32 463.66 529 464C524.25 468.875 524.25 468.875 522 470C523.25 466.347 523.671 465.219 527 463Z" fill="#8B0000" fill-opacity="0.71"/>
<path d="M511 951C513.31 951 515.62 951 518 951C518 951.33 518 951.66 518 952C515.69 952 513.38 952 511 952C511 951.67 511 951.34 511 951Z" fill="#121013"/>
<path d="M784 752C784.99 752.33 785.98 752.66 787 753C785.515 753.99 785.515 753.99 784 755C784 754.01 784 753.02 784 752Z" fill="#221A24"/>
<path d="M375 886C376.98 886.99 376.98 886.99 379 888C377.68 887.67 376.36 887.34 375 887C375 886.67 375 886.34 375 886Z" fill="#330000" fill-opacity="0.9"/>
<path d="M354 877C355.485 877.99 355.485 877.99 357 879C355.68 878.67 354.36 878.34 353 878C353.33 877.67 353.66 877.34 354 877Z" fill="#330000" fill-opacity="0.9"/>
<path d="M246 480C246.33 480.66 246.66 481.32 247 482C246.34 482.66 245.68 483.32 245 484C245.33 482.68 245.66 481.36 246 480Z" fill="#110E11"/>
<path d="M397 895C400 896 400 896 400 896L397 895Z" fill="#3B2A3D"/>
<path d="M632 894C635 895 635 895 635 895L632 894Z" fill="#3E2C3F"/>
<path d="M635 893C638 894 638 894 638 894L635 893Z" fill="#3F2D3F"/>
<path d="M371 884C371.33 884.66 371.66 885.32 372 886C371.34 885.67 370.68 885.34 370 885C370.33 884.67 370.66 884.34 371 884Z" fill="#330000" fill-opacity="0.9"/>
<path d="M363 844C363.66 844.66 364.32 845.32 365 846C364.34 846 363.68 846 363 846C363 845.34 363 844.68 363 844Z" fill="#2D212C"/>
<path d="M361 842C361.33 842.66 361.66 843.32 362 844C361.34 843.67 360.68 843.34 360 843C360.33 842.67 360.66 842.34 361 842Z" fill="#2D212D"/>
<path d="M696 826C696.66 826.66 697.32 827.32 698 828C697.34 828 696.68 828 696 828C696 827.34 696 826.68 696 826Z" fill="#2D0000"/>
<path d="M707 817C707.99 817.495 707.99 817.495 709 818C708.01 818.495 708.01 818.495 707 819C707 818.34 707 817.68 707 817Z" fill="#2B0000"/>
<path d="M171 772C171.66 772.66 172.32 773.32 173 774C172.34 774 171.68 774 171 774C171 773.34 171 772.68 171 772Z" fill="#1E171E"/>
<path d="M89 675C89.66 675 90.32 675 91 675C90.67 675.66 90.34 676.32 90 677C89.67 676.34 89.34 675.68 89 675Z" fill="#1D1C20"/>
<path d="M298 332C298.99 332.495 298.99 332.495 300 333C299.01 333.495 299.01 333.495 298 334C298 333.34 298 332.68 298 332Z" fill="#0F0D10"/>
<path d="M307 304C307.66 304 308.32 304 309 304C308.67 304.66 308.34 305.32 308 306C307.67 305.34 307.34 304.68 307 304Z" fill="#0E0B0F"/>
<path d="M360 169C360.99 169.495 360.99 169.495 362 170C361.01 170.495 361.01 170.495 360 171C360 170.34 360 169.68 360 169Z" fill="#0F0E12"/>
<path d="M599 120C599.33 120.66 599.66 121.32 600 122C599.34 121.67 598.68 121.34 598 121C598.33 120.67 598.66 120.34 599 120Z" fill="#130F14"/>
<path d="M448 112C451 113 451 113 451 113L448 112Z" fill="#141113"/>
<path d="M496 948C498 949 498 949 498 949L496 948Z" fill="#171317"/>
<path d="M493 947C495 948 495 948 495 948L493 947Z" fill="#151216"/>
<path d="M481 942C483 943 483 943 483 943L481 942Z" fill="#161216"/>
<path d="M427 900C429 901 429 901 429 901L427 900Z" fill="#1E181E"/>
<path d="M638 892C640 893 640 893 640 893L638 892Z" fill="#402B3F"/>
<path d="M660 884C662 885 662 885 662 885L660 884Z" fill="#483047"/>
<path d="M357 879C359 880 359 880 359 880L357 879Z" fill="#463147"/>
<path d="M320 863C322 864 322 864 322 864L320 863Z" fill="#483248"/>
<path d="M287 847C289 848 289 848 289 848L287 847Z" fill="#453146"/>
<path d="M675 845C677 846 677 846 677 846L675 845Z" fill="#3C2A3C"/>
<path d="M680 831C682 832 682 832 682 832L680 831Z" fill="#330000" fill-opacity="0.8"/>
<path d="M201 795C203 796 203 796 203 796L201 795Z" fill="#241C25"/>
<path d="M182 783C184 784 184 784 184 784L182 783Z" fill="#201A1F"/>
<path d="M291 781C293 782 293 782 293 782L291 781Z" fill="#291D26"/>
<path d="M289 779C291 780 291 780 291 780L289 779Z" fill="#281E27"/>
<path d="M763 769C765 770 765 770 765 770L763 769Z" fill="#330000" fill-opacity="0.8"/>
<path d="M267 759C269 760 269 760 269 760L267 759Z" fill="#201920"/>
<path d="M795 744C797 745 797 745 797 745L795 744Z" fill="#1C171E"/>
<path d="M235 730C237 731 237 731 237 731L235 730Z" fill="#141217"/>
<path d="M112 664C114 665 114 665 114 665L112 664Z" fill="#191319"/>
<path d="M899 656C901 657 901 657 901 657L899 656Z" fill="#161317"/>
<path d="M872 656C874 657 874 657 874 657L872 656Z" fill="#110F11"/>
<path d="M139 650C141 651 141 651 141 651L139 650Z" fill="#120F14"/>
<path d="M194 594C196 595 196 595 196 595L194 594Z" fill="#100E11"/>
<path d="M202 554C204 555 204 555 204 555L202 554Z" fill="#121014"/>
<path d="M354 186C356 187 356 187 356 187L354 186Z" fill="#110C10"/>
<path d="M393 144C395 145 395 145 395 145L393 144Z" fill="#110F13"/>
<path d="M402 138C404 139 404 139 404 139L402 138Z" fill="#100D11"/>
<path d="M610 128C612 129 612 129 612 129L610 128Z" fill="#111013"/>
<path d="M445 114C447 115 447 115 447 115L445 114Z" fill="#140F13"/>
<path d="M464 104C466 105 466 105 466 105L464 104Z" fill="#151215"/>
<path d="M556 99C558 100 558 100 558 100L556 99Z" fill="#161117"/>
<path d="M480 96C482 97 482 97 482 97L480 96Z" fill="#171216"/>
<defs>
<filter id="filter0_f_2_2118" x="283.237" y="214.418" width="462.313" height="504.088" filterUnits="userSpaceOnUse" color-interpolation-filters="sRGB">
<feFlood flood-opacity="0" result="BackgroundImageFix"/>
<feBlend mode="normal" in="SourceGraphic" in2="BackgroundImageFix" result="shape"/>
<feGaussianBlur stdDeviation="40" result="effect1_foregroundBlur_2_2118"/>
</filter>
<filter id="filter1_f_2_2118" x="263.237" y="194.418" width="502.313" height="544.088" filterUnits="userSpaceOnUse" color-interpolation-filters="sRGB">
<feFlood flood-opacity="0" result="BackgroundImageFix"/>
<feBlend mode="normal" in="SourceGraphic" in2="BackgroundImageFix" result="shape"/>
<feGaussianBlur stdDeviation="50" result="effect1_foregroundBlur_2_2118"/>
</filter>
</defs>
</svg>
